<?xml version="1.0" standalone="no"?>
<!DOCTYPE svg PUBLIC "-//W3C//DTD SVG 1.1//EN" "http://www.w3.org/Graphics/SVG/1.1/DTD/svg11.dtd" >
<!--
2013-9-30: Created.
-->
<svg>
<metadata>
Created by iconfont
</metadata>
<defs>

<font id="iconfont" horiz-adv-x="1024" >
  <font-face
    font-family="iconfont"
    font-weight="500"
    font-stretch="normal"
    units-per-em="1024"
    ascent="896"
    descent="-128"
  />
    <missing-glyph />
    
    <glyph glyph-name="redo" unicode="&#59117;" d="M418.3259375 539.34375h415.7015625l-201.87 199.1521875c-17.7871875 17.7871875-17.7871875 43.185 0 60.973125s41.5546875 18.64125 59.4196875 0.778125l273.1734375-266.8040625c17.7871875-17.7871875 17.7871875-41.3990625 0-59.18625l-273.1734375-267.1153125c-17.7871875-17.7871875-41.5546875-17.7871875-59.4196875 0.0778125-17.7871875 17.7871875-17.7871875 41.165625 0 58.9528125l201.87 195.500625h-415.7015625c-166.21875 0-294.6890625-129.7115625-294.6890625-290.02875v-41.5546875c0-23.769375-15.069375-41.5546875-38.8359375-41.5546875s-38.8359375 17.7871875-38.8359375 41.5546875v41.5546875c0 207.8521875 158.6071875 367.6996875 372.3609375 367.6996875z"  horiz-adv-x="1024" />

    
    <glyph glyph-name="social-share" unicode="&#59343;" d="M806.9632 221.73866667000004c-33.85813333 0-64.7168-12.76906667-88.07786667-33.73333334L446.99093333 344.98453333c9.34506667 22.33386667 14.55253333 46.82773333 14.55253334 72.55253334 0 24.35733333-4.66666667 47.6128-13.09546667 68.97386666l245.00586667 141.45493334c20.368-24.34453333 50.92906667-39.85813333 85.15093333-39.85813334 61.3568 0 111.09226667 49.73546667 111.09226667 111.08586667 0 61.344-49.73653333 111.07946667-111.09226667 111.07946667-61.344 0-111.07946667-49.73013333-111.07946667-111.07946667 0-2.42773333 0.09706667-4.83093333 0.27306667-7.2128L412.30186667 544.4693333299999c-34.4256 37.6832-83.95733333 61.3312-139.02186667 61.3312-103.97546667 0-188.26346667-84.28906667-188.26346667-188.26346666 0-103.97546667 84.288-188.26346667 188.26346667-188.26346667 53.64693333 0 102.01813333 22.46933333 136.304 58.48l271.90293333-156.98346667c-4.22506667-12.9184-6.528-26.70613333-6.528-41.03466666 0-72.90773333 59.104-132.00746667 132.00426667-132.00746667 72.91626667 0 132.02133333 59.09973333 132.02133333 132.00746667C938.9856 162.63893333 879.88053333 221.73866667000004 806.9632 221.73866667000004zM778.23893333 751.0047999999999c28.82453333 0 52.18986667-23.36533333 52.18986667-52.18346667 0-28.82133333-23.3664-52.18773333-52.18986667-52.18773333-28.8192 0-52.18453333 23.36533333-52.18453333 52.18773333C726.05546667 727.64266667 749.4208 751.0047999999999 778.23893333 751.0047999999999zM271.8176 295.94773333c-66.28906667 0-120.0384 53.7408-120.0384 120.03733334 0 66.29546667 53.74826667 120.0384 120.0384 120.0384 66.2976 0 120.04266667-53.744 120.04266667-120.0384C391.86026667 349.68746667000005 338.11626667 295.94773333 271.8176 295.94773333zM806.96746667 16.84266666999997c-40.2528 0-72.88853333 32.63253333-72.88853334 72.8896 0 40.25706667 32.63573333 72.8896 72.88853334 72.8896 40.2624 0 72.8992-32.63253333 72.8992-72.8896C879.8656 49.47519999999997 847.22986667 16.84266666999997 806.96746667 16.84266666999997z"  horiz-adv-x="1024" />

    
    <glyph glyph-name="calendar" unicode="&#58946;" d="M466.944 158.72000000000003c-4.096-4.096-12.288-8.192-20.48-12.288-8.192-4.096-16.384-4.096-24.576-4.096-20.48 0-36.864 8.192-45.056 20.48-12.288 12.288-16.384 28.672-16.384 49.152L323.584 211.96799999999996c0-16.384 0-28.672 8.192-40.96 4.096-12.288 12.288-24.576 20.48-32.768 8.192-8.192 20.48-16.384 32.768-20.48 12.288-4.096 24.576-8.192 40.96-8.192 12.288 0 28.672 0 40.96 4.096 12.288 4.096 24.576 8.192 32.768 16.384 8.192 8.192 16.384 16.384 20.48 28.672 4.096 12.288 8.192 24.576 8.192 40.96 0 16.384-4.096 32.768-12.288 49.152-8.192 12.288-20.48 20.48-40.96 24.576l0 0c12.288 4.096 20.48 12.288 28.672 24.576 8.192 12.288 12.288 24.576 12.288 36.864 0 12.288-4.096 24.576-8.192 36.864-4.096 12.288-12.288 20.48-20.48 24.576-8.192 8.192-16.384 12.288-28.672 16.384-12.288 4.096-24.576 4.096-36.864 4.096-16.384 0-28.672-4.096-36.864-8.192-12.288-4.096-20.48-12.288-28.672-20.48-8.192-8.192-12.288-20.48-16.384-32.768C331.776 351.23199999999997 327.68 338.94399999999996 327.68 322.55999999999995l36.864 0c0 8.192 0 16.384 4.096 24.576C368.64 355.328 372.736 363.52 376.832 367.616c4.096 4.096 12.288 12.288 16.384 12.288 8.192 4.096 16.384 4.096 24.576 4.096 16.384 0 28.672-4.096 36.864-12.288 8.192-8.192 16.384-20.48 16.384-36.864 0-8.192 0-16.384-4.096-20.48-4.096-8.192-8.192-12.288-12.288-16.384s-12.288-8.192-16.384-8.192c-8.192-4.096-12.288-4.096-20.48-4.096L409.6 285.696c0 0-4.096 0-4.096 0 0 0-4.096 0-4.096 0l0-32.768c8.192 0 12.288 0 20.48 0 8.192 0 16.384 0 24.576-4.096 8.192-4.096 12.288-4.096 20.48-12.288 4.096-4.096 8.192-12.288 12.288-16.384 4.096-8.192 4.096-16.384 4.096-24.576 0-8.192 0-16.384-4.096-24.576C475.136 171.00800000000004 471.04 166.91200000000003 466.944 158.72000000000003zM851.968 740.352l-73.728 0L778.24 797.696c0 12.288-8.192 20.48-20.48 20.48S737.28 805.888 737.28 797.696l0-57.344L286.72 740.352 286.72 797.696C286.72 805.888 278.528 814.08 266.24 814.08 258.048 814.08 249.856 805.888 249.856 797.696l0-57.344L172.032 740.352c-40.96 0-73.728-32.768-73.728-73.728l0-114.688 0-36.864 0-450.56c0-40.96 32.768-73.728 73.728-73.728l679.936 0c40.96 0 73.728 32.768 73.728 73.728l0 450.56L925.696 551.9359999999999 925.696 662.528C925.696 707.5840000000001 892.928 740.352 851.968 740.352zM888.832 60.416000000000054c0-20.48-16.384-36.864-36.864-36.864L172.032 23.55200000000002c-20.48 0-36.864 16.384-36.864 36.864l0 450.56 753.664 0L888.832 60.416000000000054zM888.832 551.9359999999999L135.168 551.9359999999999 135.168 662.528c0 20.48 16.384 36.864 36.864 36.864l73.728 0 0-57.344c0-12.288 8.192-20.48 20.48-20.48C278.528 625.664 286.72 633.856 286.72 646.144L286.72 703.488l450.56 0 0-57.344c0-12.288 8.192-20.48 20.48-20.48s20.48 8.192 20.48 20.48L778.24 703.488l73.728 0c20.48 0 36.864-16.384 36.864-36.864L888.832 551.9359999999999zM643.072 117.75999999999999l36.864 0 0 303.104-28.672 0c0-12.288-4.096-20.48-12.288-28.672-4.096-8.192-12.288-12.288-20.48-16.384-8.192-4.096-16.384-8.192-24.576-8.192-8.192 0-20.48-4.096-28.672-4.096l0-28.672 77.824 0L643.072 117.75999999999999z"  horiz-adv-x="1024" />

    
    <glyph glyph-name="undo" unicode="&#58904;" d="M603.130625 492.135H213.41l189.253125 186.705c16.6753125 16.6753125 16.6753125 40.4859375 0 57.1621875s-38.9578125 17.4759375-55.70625 0.729375L90.9284375 486.6028125c-16.6753125-16.6753125-16.6753125-38.8115625 0-55.486875L347.028125 180.69562499999995c16.6753125-16.6753125 38.9578125-16.6753125 55.70625 0.073125 16.6753125 16.6753125 16.6753125 38.593125 0 55.2684375L213.408125 419.319375h389.720625c155.8303125 0 291.7078125-121.605 291.7078125-271.9021875v-38.9578125c0-22.2834375 14.1271875-38.9578125 36.40875-38.9578125s36.40875 16.6753125 36.40875 38.9578125v38.9578125c0 194.86125-164.1309375 344.71875-364.52625 344.71875z"  horiz-adv-x="1024" />

    
    <glyph glyph-name="loading" unicode="&#59018;" d="M511.882596 608.001919h-0.361244a31.998984 31.998984 0 0 0-31.659415 31.977309v0.361244c0 0.104761 0.115598 11.722364 0.115598 63.658399V799.999436a31.998984 31.998984 0 1 0 64.001581 0V703.998871c0-52.586273-0.111986-63.88237-0.119211-64.337537a32.002596 32.002596 0 0 0-31.977309-31.659415zM511.998194-63.99842a31.998984 31.998984 0 0 0-31.998984 31.998984v96.379871c0 51.610915-0.111986 63.174332-0.115598 63.286318s0 0.242033 0 0.361243a31.998984 31.998984 0 0 0 63.997968 0.314283c0-0.455167 0.11921-11.711527 0.11921-64.034093v-96.307622a31.998984 31.998984 0 0 0-32.002596-31.998984zM330.899406 532.978788a31.897836 31.897836 0 0 0-22.866739 9.612699c-0.075861 0.075861-8.207461 8.370021-44.931515 45.094076L195.198137 655.570515a31.998984 31.998984 0 0 0 45.256635 45.253022L308.336112 632.942197c37.182834-37.182834 45.090463-45.253022 45.41197-45.578141A31.998984 31.998984 0 0 0 330.899406 532.978788zM806.137421 57.88527a31.901448 31.901448 0 0 0-22.628318 9.374279L715.624151 135.140889c-36.724054 36.724054-45.018214 44.859267-45.097687 44.93874a31.998984 31.998984 0 0 0 44.77618 45.729864c0.32512-0.317895 8.395308-8.229136 45.578142-45.411969l67.88134-67.88134a31.998984 31.998984 0 0 0-22.624705-54.630914zM224.000113 57.88527a31.901448 31.901448 0 0 1 22.628317 9.374279l67.88134 67.88134c36.724054 36.724054 45.021826 44.859267 45.097688 44.93874a31.998984 31.998984 0 0 1-44.776181 45.729864c-0.32512-0.317895-8.395308-8.229136-45.578142-45.411969l-67.88134-67.884953a31.998984 31.998984 0 0 1 22.628318-54.627301zM255.948523 351.941411h-0.361244c-0.104761 0-11.722364 0.115598-63.658399 0.115598H95.942765a31.998984 31.998984 0 1 0 0 64.00158h95.996952c52.586273 0 63.88237-0.111986 64.337538-0.11921a31.998984 31.998984 0 0 0 31.659414-31.97731v-0.361244a32.002596 32.002596 0 0 0-31.988146-31.659414zM767.939492 351.941411a32.002596 32.002596 0 0 0-31.995372 31.666639v0.361244a31.998984 31.998984 0 0 0 31.659415 31.970085c0.455167 0 11.754876 0.11921 64.34115 0.11921h96.000564a31.998984 31.998984 0 0 0 0-64.00158H831.944685c-51.936034 0-63.553638-0.111986-63.665624-0.115598h-0.335957zM692.999446 532.9824a31.998984 31.998984 0 0 0-22.863126 54.381656c0.317895 0.32512 8.229136 8.395308 45.41197 45.578141l67.88134 67.884953A31.998984 31.998984 0 1 0 828.693489 655.570515l-67.892177-67.88134c-31.020013-31.023625-41.644196-41.759794-44.241539-44.393262l-0.697201-0.722488a31.908673 31.908673 0 0 0-22.863126-9.591025z"  horiz-adv-x="1024" />

    
    <glyph glyph-name="loading-radian" unicode="&#59255;" d="M958.25 350.25q-14.07 0-23.91 9.84T924.5 384q0 84.39000001-32.82 160.32-30.93 74.07-88.14 131.25000001t-131.24999999 89.06999999q-75.93 31.89-160.32000001 31.89-14.07 0-23.91 9.84t-9.84 23.91 9.84 23.90999999 23.91 9.84000001q97.49999999 0 186.57-37.5 86.25-36.57 152.82-103.14t103.14-152.82Q991.99999999 481.5 992 384q0-14.07-9.84-23.91t-23.91-9.84z"  horiz-adv-x="1024" />

    
    <glyph glyph-name="info" unicode="&#59869;" d="M716.64060997 42.10381221H598.99297185V600.1015888c0 27.47873238-22.23153725 49.71026963-49.71026963 49.71026963h-132.56071902c-27.47873238 0-49.71026963-22.23153725-49.71026962-49.71026963s22.23153725-49.71026963 49.71026962-49.71026962h82.85044939v-508.28750697h-117.64763812c-27.47873238 0-49.71026963-22.23153725-49.71026964-49.71026963s22.23153725-49.71026963 49.71026964-49.71026963H716.64060997c27.47873238 0 49.71026963 22.23153725 49.71026964 49.71026963s-22.23153725 49.71026963-49.71026964 49.71026963zM499.57243259 786.51509991a49.71026963 49.71026963 0 1 1 99.42053926 0 49.71026963 49.71026963 0 1 1-99.42053926 0z"  horiz-adv-x="1025" />

    
    <glyph glyph-name="left-sorting" unicode="&#59817;" d="M533.88567009 356.38318398l-0.55233676 0.55233545 247.72284365 247.77807772 39.05017805-39.05017805-209.28023515-209.28023512 209.33546922-209.33546922-39.10541212-38.99494528L533.33333333 355.77561314l0.55233676 0.60757084z m-331.40179753 0L201.9315358 356.93551943l247.72284366 247.77807772 39.05017804-39.05017805L279.42432236 356.38318398l209.3354692-209.33546922-39.1054121-38.99494528L201.9315358 355.77561314l0.55233676 0.60757084z"  horiz-adv-x="1024" />

    
    <glyph glyph-name="right-sorting" unicode="&#59842;" d="M488.09698796 356.38318398l0.60756954 0.55233545-247.72284366 247.77807772L201.9315358 565.7186518799999 411.267005 356.38318398 201.9315358 147.04771475999996l39.05017804-38.99494528 247.72284366 247.72284366-0.55233547 0.60757084z m331.40179754 0l0.60756953 0.55233545-247.72284365 247.77807772L533.33333333 565.7186518799999l209.33546921-209.28023514L533.33333333 147.04771475999996l39.05017805-38.99494528 247.72284365 247.72284366-0.55233547 0.60757084z"  horiz-adv-x="1024" />

    
    <glyph glyph-name="notice" unicode="&#58901;" d="M950.272 116.05333332999999h-89.54311111V418.01955555c0 192.62577778-129.13777778 352.59733333-296.96 380.24533334 0.11377778 1.36533333 0.34133333 2.61688889 0.34133333 3.98222222 0 29.80977778-23.32444445 53.93066667-52.11022222 53.93066667-28.78577778 0-52.11022222-24.12088889-52.11022222-53.93066667 0-1.36533333 0.34133333-2.61688889 0.34133333-3.98222222-167.82222222-27.648-296.96-187.61955555-296.96-380.24533334v-301.96622222h-89.54311111c-15.58755555 0-28.21688889-12.62933333-28.21688889-28.33066666 0-15.58755555 12.62933333-28.33066667 28.21688889-28.33066667H358.4c8.98844445-82.944 74.41066667-147.56977778 153.6-147.56977778s144.61155555 64.62577778 153.48622222 147.68355556h284.672c15.58755555 0 28.21688889 12.62933333 28.21688889 28.33066667 0.11377778 15.47377778-12.51555555 28.21688889-28.10311111 28.21688888zM512-31.63022221999995c-48.24177778 0-88.29155555 39.36711111-96.48355555 91.02222222h192.9671111c-8.192-51.65511111-48.24177778-91.02222222-96.48355555-91.02222222zM219.81866667 116.05333332999999V418.01955555c0 180.79288889 131.072 327.90755555 292.18133333 327.90755556s292.18133333-147.11466667 292.18133333-327.90755556v-301.96622222H219.81866667z"  horiz-adv-x="1024" />

    
    <glyph glyph-name="warning" unicode="&#59072;" d="M512 128.57600000000002c-41.2 0-77.2-37.024-77.2-80.288C434.8 5.440000000000055 470.4-32 512-32s77.2 37.024 77.2 80.288c0 42.848-36 80.288-77.2 80.288zM512 800c-44.4 0-80-37.024-80-83.2l30.4-430.976c0-46.176 5.6-83.2 50-83.2s50 37.024 50 83.2L592 716.8c0 46.176-35.6 83.2-80 83.2z"  horiz-adv-x="1024" />

    
    <glyph glyph-name="add-circle" unicode="&#58948;" d="M512 864C246.87999969 864 32 649.12000031 32 384s214.87999969-480 480-480 480 214.87999969 480 480S777.12000031 864 512 864z m291.64000031-771.64000031a410.35999969 410.35999969 0 0 0-131.16-88.39999969c-50.80000031-21.6-104.80000031-32.44000031-160.48000031-32.44000031-55.68 0-109.68 10.84000031-160.48000031 32.32000031a412.92 412.92 0 0 0-131.19999938 88.39999969 410.35999969 410.35999969 0 0 0-88.40000062 131.20000031A409.32 409.32 0 0 0 99.51999969 384c0 55.68 10.84000031 109.68 32.32000031 160.51999969a412.92 412.92 0 0 0 88.39999969 131.12000062 410.35999969 410.35999969 0 0 0 131.20000031 88.39999969c50.88 21.6 104.88 32.47999969 160.56 32.47999969 55.68 0 109.68-10.87999969 160.48000031-32.4 49.15999969-20.80000031 93.19999969-50.47999969 131.19999938-88.39999969 37.84000031-37.84000031 67.68-82.00000031 88.40000062-131.11999969 21.55999969-50.92000031 32.4-104.92000031 32.4-160.60000031a410.11999969 410.11999969 0 0 0-120.80000062-291.64000031z m-85.40000062 324.92000062h-171.99999938v171.99999938a33.72 33.72 0 1 1-67.52000062 0v-171.99999938H305.76000031a33.72 33.72 0 1 1 0-67.52000062h172.95999938v-171.07999969a33.72 33.72 0 1 1 67.52000062 0v171.12h171.99999938a33.72 33.72 0 1 1 0 67.51999969v-0.03999938z"  horiz-adv-x="1024" />

    
    <glyph glyph-name="add" unicode="&#58949;" d="M920.12942832 426.85714307h-370.32857139V791.74285723A42.04285752 42.04285752 0 0 1 507.92942832 834a42.04285752 42.04285752 0 0 1-41.87142861-42.3v-364.79999971H103.87228555a42.04285752 42.04285752 0 0 1-41.87142862-42.3c0-23.4 18.72857109-42.3 41.87142862-42.3h362.18571416v-366.00000029c0-23.4 18.72857109-42.3 41.87142861-42.3s41.87142862 18.9 41.87142861 42.3v366.00000029h370.32857139c23.14285752 0 41.87142862 18.9 41.87142861 42.3a42.04285752 42.04285752 0 0 1-41.87142861 42.3z"  horiz-adv-x="1024" />

    
    <glyph glyph-name="ascent" unicode="&#58950;" d="M454.33861063-40.01684250000005V673.76842125c0 0.10105219-0.25263188 0.25263188-0.25263188 0.10105219l-272.33684156-269.25473625a59.72210531 59.72210531 0 0 0-81.49894782-1.51578938A52.74947344 52.74947344 0 0 0 98.7344 480.60631594L469.54703188 847.22526281C480.41018937 857.88631594 495.46703187 864 511.07966281 864c15.6631575 0 30.61894781-6.0631575 41.48210532-16.77473719l372.88421062-368.69052562c10.71157875-10.61052656 16.06736812-24.25263187 16.06736906-37.89473719 0-14.50105219-5.91157875-28.8-17.68421062-39.46105219a59.8231575 59.8231575 0 0 0-81.44842125 1.51578938L569.99334781 671.84842125c-0.15157875 0.10105219-0.25263188 0-0.25263187-0.15157875v-713.02736906c0-29.1031575-23.94947344-52.90105219-54.06315844-54.61894688-33.54947344-1.86947344-61.33894781 24.15157875-61.33894687 55.88210531z"  horiz-adv-x="1024" />

    
    <glyph glyph-name="add-fill" unicode="&#58951;" d="M512 864C246.87999969 864 32 649.12000031 32 384s214.87999969-480 480-480 480 214.87999969 480 480S777.12000031 864 512 864z m206.23999969-446.71999969a33.72 33.72 0 1 0 0-67.48000031h-171.99999938v-171.12a33.72 33.72 0 1 0-67.52000062 0v171.12H305.76000031a33.72 33.72 0 1 0 0 67.48000031h172.95999938v171.99999938a33.72 33.72 0 1 0 67.48000031 0v-171.99999938h172.03999969z"  horiz-adv-x="1024" />

    
    <glyph glyph-name="attachment" unicode="&#58952;" d="M913.11596563 646.37217375a269.21739094 269.21739094 0 0 1-189.95478282 77.92695656h-0.751305c-34.56 0-68.24347781-6.46956563-100.29913031-19.2a265.41913031 265.41913031 0 0 1-88.77913031-58.01739093l-250.68521719-247.76347876a149.59304344 149.59304344 0 0 1-44.66086969-107.60347781c0.12521719-40.6956525 16.15304344-78.88695656 45.20347875-107.68695656a154.01739094 154.01739094 0 0 1 108.688695-44.66086969h0.33391313c41.02956563 0 79.42956562 15.7356525 108.271305 44.16l219.96521719 217.46086969a37.56521719 37.56521719 0 0 1-1e-8 53.80173937 38.06608687 38.06608687 0 0 1-27.13043531 11.06086875 38.52521719 38.52521719 0 0 1-27.13043437-11.06086875l-219.96521719-217.46086968c-14.27478281-14.19130406-33.55826063-21.95478281-54.09391313-21.95478282h-0.12521718a77.71826062 77.71826062 0 0 0-54.67826156 22.41391313 75.63130406 75.63130406 0 0 0-22.58086969 54.01043437 74.08695656 74.08695656 0 0 0 22.12173937 53.63478282l250.68521719 247.84695656a190.33043437 190.33043437 0 0 0 134.94260906 54.92869594h0.54260906a193.25217375 193.25217375 0 0 0 136.06956469-55.68 188.45217375 188.45217375 0 0 0 56.2643475-134.31652219 186.15652219 186.15652219 0 0 0-55.42956468-133.77391313l-265.92000001-263.16521718a283.15826063 283.15826063 0 0 0-199.97217374-81.18260906h-0.75130501a285.4956525 285.4956525 0 0 0-201.18260812 82.47652218 278.14956563 278.14956563 0 0 0-83.26956562 198.76173938 275.35304344 275.35304344 0 0 0 82.22608687 198.17739094l343.30434844 339.46434749a37.56521719 37.56521719 0 0 1 0 53.84347875 38.60869594 38.60869594 0 0 1-54.34434844 0.08347782L136.76813937 513.3078262500001A351.02608687 351.02608687 0 0 1 57.88118281 395.47826062 354.36521719 354.36521719 0 0 1 32.00292219 261.12a352.27826063 352.27826063 0 0 1 26.71304343-134.31652219 359.79130406 359.79130406 0 0 1 198.55304344-196.4243475A366.67826063 366.67826063 0 0 1 393.0464-96h0.96c46.70608687 0 92.03478281 8.59826062 134.81739094 25.71130406a353.61391313 353.61391313 0 0 1 119.16521812 77.84347875l265.96173844 263.04a260.57739094 260.57739094 0 0 1 58.64347875 87.86086969c12.93913031 31.93043438 19.49217375 65.53043437 19.36695656 100.09043438a264.20869594 264.20869594 0 0 1-78.88695656 187.82608687z"  horiz-adv-x="1024" />

    
    <glyph glyph-name="check-circle" unicode="&#58953;" d="M708.2 577.5199996900001l-307.00000031-307.99999969-80.07999938 140.16a33.67999969 33.67999969 0 0 1-46.00000031 12.55999969 33.67999969 33.67999969 0 0 1-12.6-45.99999938l102-178.60000031a33.79999969 33.79999969 0 0 1 54-6.40000031l0.40000031 0.40000031 336.99999938 338.04a33.76000031 33.76000031 0 0 1-0.07999969 47.71999969 33.48 33.48 0 0 1-47.59999969 0.12zM512 864C246.87999969 864 32 649.12000031 32 384s214.87999969-480 480-480 480 214.87999969 480 480S777.12000031 864 512 864z m291.64000031-771.64000031a410.35999969 410.35999969 0 0 0-131.16-88.39999969c-50.80000031-21.6-104.80000031-32.44000031-160.48000031-32.44000031-55.68 0-109.68 10.84000031-160.48000031 32.32000031a412.92 412.92 0 0 0-131.19999938 88.39999969 410.35999969 410.35999969 0 0 0-88.40000062 131.20000031A409.32 409.32 0 0 0 99.51999969 384c0 55.68 10.84000031 109.68 32.32000031 160.51999969a412.92 412.92 0 0 0 88.39999969 131.12000062 410.35999969 410.35999969 0 0 0 131.20000031 88.39999969c50.88 21.6 104.88 32.47999969 160.56 32.47999969 55.68 0 109.68-10.87999969 160.48000031-32.4 49.15999969-20.80000031 93.19999969-50.47999969 131.19999938-88.39999969 37.84000031-37.84000031 67.68-82.00000031 88.40000062-131.11999969 21.55999969-50.92000031 32.4-104.92000031 32.4-160.60000031a410.11999969 410.11999969 0 0 0-120.80000062-291.64000031z"  horiz-adv-x="1024" />

    
    <glyph glyph-name="close-circle" unicode="&#58954;" d="M704.40000031 576.9199996899999a33.76000031 33.76000031 0 0 1-47.76-0.07999969L512 431.80000031 367.35999969 576.8399999999999a33.76000031 33.76000031 0 0 1-47.83999969-47.59999969L464.40000031 384l-144.80000062-145.2a33.76000031 33.76000031 0 0 1 47.80000031-47.64L512 336.19999969l144.64000031-145.11999938a33.6 33.6 0 0 1 47.71999969-0.08000062 33.76000031 33.76000031 0 0 1 0.12 47.68000031L559.59999969 384l144.72 145.2a33.67999969 33.67999969 0 0 1 0 47.71999969zM512 864C246.87999969 864 32 649.12000031 32 384s214.87999969-480 480-480 480 214.87999969 480 480S777.12000031 864 512 864z m291.64000031-771.64000031a410.35999969 410.35999969 0 0 0-131.16-88.39999969c-50.80000031-21.6-104.80000031-32.44000031-160.48000031-32.44000031-55.68 0-109.68 10.84000031-160.51999969 32.32000031a412.92 412.92 0 0 0-131.12000062 88.39999969 410.35999969 410.35999969 0 0 0-88.39999969 131.20000031A409.32 409.32 0 0 0 99.44 384c0 55.68 10.87999969 109.68 32.4 160.51999969a412.92 412.92 0 0 0 88.39999969 131.12000062 410.35999969 410.35999969 0 0 0 131.12000062 88.39999969c50.92000031 21.6 104.92000031 32.47999969 160.59999938 32.47999969 55.68 0 109.68-10.87999969 160.48000031-32.4 49.15999969-20.80000031 93.19999969-50.47999969 131.20000031-88.39999969 37.84000031-37.84000031 67.68-82.00000031 88.39999969-131.11999969 21.55999969-50.92000031 32.4-104.92000031 32.4-160.60000031a410.11999969 410.11999969 0 0 0-120.79999969-291.64000031z"  horiz-adv-x="1024" />

    
    <glyph glyph-name="check-fill" unicode="&#58955;" d="M512 864C246.87999969 864 32 649.12000031 32 384s214.87999969-480 480-480 480 214.87999969 480 480S777.12000031 864 512 864z m196.2-286.51999969a33.48 33.48 0 0 0 47.64-0.08000062c13.2-13.12000031 13.2-34.48000031 0.07999969-47.71999969l-336.99999938-338.04-0.40000031-0.40000031a33.43999969 33.43999969 0 0 0-24.64000031-10.68 33.79999969 33.79999969 0 0 0-29.35999969 17.08000031l-102 178.56a33.67999969 33.67999969 0 0 0 12.55999969 46.03999969 33.67999969 33.67999969 0 0 0 46.04000062-12.55999969l80.07999938-140.16 307.00000031 307.99999969z"  horiz-adv-x="1024" />

    
    <glyph glyph-name="close-fill" unicode="&#58956;" d="M512 864C246.87999969 864 32 649.12000031 32 384s214.87999969-480 480-480 480 214.87999969 480 480S777.12000031 864 512 864z m192.40000031-287.08000031c13.2-13.12000031 13.2-34.48000031 0-47.71999969L559.59999969 384l144.88000031-145.32a33.76000031 33.76000031 0 0 0-47.83999969-47.59999969L512 336.19999969l-144.64000031-145.03999969a33.6 33.6 0 0 0-47.71999969-0.07999969 33.76000031 33.76000031 0 0 0-0.12 47.71999969L464.40000031 384 319.59999969 529.2a33.76000031 33.76000031 0 0 0 47.80000031 47.64L512 431.80000031l144.64000031 145.03999969a33.76000031 33.76000031 0 0 0 47.71999969 0.07999969z"  horiz-adv-x="1024" />

    
    <glyph glyph-name="close" unicode="&#58957;" d="M584.98321072 384.00099289l333.77678833 333.7271554a51.46862888 51.46862888 0 0 1 0 72.86012292 51.36936465 51.36936465 0 0 1-72.81049082 0L512.02382358 456.96038003 178.09813891 790.7371683700001a51.36936465 51.36936465 0 0 1-72.81049081 0 51.46862888 51.46862888 0 0 1 0-72.90975504L439.06443643 384.10025711 105.2876481 50.22420456999998a51.46862888 51.46862888 0 0 1 36.43006147-87.94832246c13.2021752 0 26.30508535 4.96322342 36.38042934 15.03856742L512.02382358 311.09123786l333.92568466-333.87605255c10.07534399-10.1249761 23.17825415-15.08819952 36.38042935-15.08820035a51.46862888 51.46862888 0 0 1 36.43006146 87.94832244L584.98321072 384.00099289z"  horiz-adv-x="1024" />

    
    <glyph glyph-name="del-circle" unicode="&#58958;" d="M512 864C246.87999969 864 32 649.12000031 32 384s214.87999969-480 480-480 480 214.87999969 480 480S777.12000031 864 512 864z m291.64000031-771.64000031a410.35999969 410.35999969 0 0 0-131.12000062-88.39999969c-50.80000031-21.6-104.80000031-32.44000031-160.51999969-32.44000031-55.68 0-109.68 10.84000031-160.51999969 32.32000031a412.92 412.92 0 0 0-131.12000062 88.39999969 410.35999969 410.35999969 0 0 0-88.39999969 131.20000031A409.32 409.32 0 0 0 99.44 384c0 55.68 10.87999969 109.68 32.4 160.51999969a412.92 412.92 0 0 0 88.39999969 131.12000062 410.35999969 410.35999969 0 0 0 131.12000062 88.39999969c50.92000031 21.6 104.92000031 32.47999969 160.59999938 32.47999969 55.68 0 109.68-10.87999969 160.52000062-32.4 49.12000031-20.80000031 93.19999969-50.47999969 131.11999969-88.39999969 37.87999969-37.84000031 67.72000031-82.00000031 88.39999969-131.11999969 21.6-50.92000031 32.44000031-104.92000031 32.44000031-160.60000031a410.11999969 410.11999969 0 0 0-120.79999969-291.64000031z m-24.92000062 257.88H245.28000031a33.72 33.72 0 1 0 0 67.52000062h533.43999938a33.72 33.72 0 1 0 0-67.52000062z"  horiz-adv-x="1024" />

    
    <glyph glyph-name="download" unicode="&#58959;" d="M337.14271156 411.65690156a41.55426562 41.55426562 0 0 1-29.66855719-12.34285125 41.59998 41.59998 0 0 1 0-59.10854344l170.87991844-169.91991937a42.05712281 42.05712281 0 0 1 59.42854313 0l170.834205 169.91991938a41.59998 41.59998 0 0 1 0 59.10854343 42.14855156 42.14855156 0 0 1-29.71427157 12.20570813 41.96569406 41.96569406 0 0 1-29.80570031-12.20570813l-99.06280969-98.60566781V822.17099156A41.87426531 41.87426531 0 0 1 507.97691656 863.9995425a41.87426531 41.87426531 0 0 1-42.01140843-41.82855094v-521.46260906l-99.06281063 98.74281a42.3771225 42.3771225 0 0 1-29.75998594 12.20570906z m617.87399156-166.99420687a37.02855375 37.02855375 0 0 1-37.02855375-36.89141063v-208.365615c0-12.02285156-9.919995-21.94284656-22.12570312-21.94284656H128.18281156a22.03427531 22.03427531 0 0 0-22.03427531 21.94284656v208.45704375a37.02855375 37.02855375 0 0 1-74.0571075 0v-237.66845906C32.09142875-66.37715719000005 61.98855688-96 98.60568219-96h826.97103562c36.70855406 0 66.51425437 29.71427156 66.51425344 66.19425375v237.7141725a36.98283938 36.98283938 0 0 1-37.02855375 36.75426844z"  horiz-adv-x="1024" />

    
    <glyph glyph-name="del-fill" unicode="&#58960;" d="M512 864C246.87999969 864 32 649.12000031 32 384s214.87999969-480 480-480 480 214.87999969 480 480S777.12000031 864 512 864z m266.71999969-513.76000031H245.28000031a33.72 33.72 0 1 0 0 67.52000062h533.43999938a33.72 33.72 0 1 0 0-67.52000062z"  horiz-adv-x="1024" />

    
    <glyph glyph-name="edit" unicode="&#58961;" d="M949.21739094-10.309565629999952H74.78260906a42.90782625 42.90782625 0 0 1 0-85.69043437h874.43478188a42.90782625 42.90782625 0 0 1 0 85.69043438z m-658.68521719 128.55652219c5.71826063 0 11.68695656 1.21043438 17.69739188 3.58956563h0.41739093l243.54782625 114.53217375 2.5043475 1.25217375 414.21913032 414.88695656c14.19130406 14.14956562 21.95478281 32.97391312 21.95478281 53.00869594 0 19.95130406-7.84695656 38.81739094-21.95478281 52.92521719L885.31478281 842.12869594a74.83826063 74.83826063 0 0 1-105.93391312-0.12521813l-412.63304344-412.8-1.83652219-1.87826062-1.12695656-2.33739094-113.94782531-242.46260906c-6.72-14.35826062-5.71826063-30.09391313 2.75478187-43.45043438 8.34782625-12.8556525 22.83130406-20.86956562 37.94086969-20.86956562zM782.46956563 724.17391313l49.66956468 49.71130406L900.59130406 705.39130406l-49.62782625-49.71130406-68.49391219 68.5356525z m-407.37391313-476.24347876l60.77217375 129.391305 286.08 286.33043438 68.49391313-68.61913031-286.08-286.24695656L375.0956525 247.93043437999995z"  horiz-adv-x="1024" />

    
    <glyph glyph-name="descent" unicode="&#58962;" d="M569.6980175 808.01687156v-713.88594c0-0.10105219 0.25263188-0.25263188 0.25263094-0.10105219l272.33669906 269.30512125a59.72207344 59.72207344 0 0 0 81.49890469 1.46526188c22.88840906-20.91788344 23.69682938-55.62944437 1.566315-77.40627469l-370.71138375-366.61875468a59.36838937 59.36838937 0 0 0-41.53261031-16.77472782 59.11575844 59.11575844 0 0 0-41.53260938 16.77472781L98.69194906 289.36451250000005A53.00207719 53.00207719 0 0 0 100.20773844 366.82131469a59.82312656 59.82312656 0 0 0 81.44837812-1.51578938L454.04334125 96.00040406000005c0.15157875-0.10105219 0.25263188 0 0.25263188 0.15157875V809.2800290600001c0 29.1031425 23.94946125 52.901025 54.06312937 54.61891875 33.54945563 1.8694725 61.338915-24.15156656 61.338915-55.88207625z"  horiz-adv-x="1024" />

    
    <glyph glyph-name="email" unicode="&#58963;" d="M1041.09714313 864H120.04571469C71.36 864 32 823.8628575 32 774.21714281v-780.43428562C32-55.86285750000002 71.36-96 120.04571469-96h921.05142843C1089.78285687-96 1129.14285688-55.86285750000002 1129.14285688-6.217142810000041V774.21714281C1129.14285688 823.77142875 1089.64571469 864 1041.09714313 864z m-94.445715-89.78285719l-327.86285625-279.45142875-1.96571438-1.59999937-1.69142906-1.82857219a43.29142875 43.29142875 0 0 0-31.68-13.98857063h-0.22857094a43.33714313 43.33714313 0 0 0-31.54285781 13.57714219l-1.7371425 1.73714344-334.8571425 281.59999969h731.56571344z m94.445715-780.43428562H120.04571469V737.69142844l370.33142812-311.13142875a129.64571437 129.64571437 0 0 1 92.9371425-38.994285h0.64000032a129.50857125 129.50857125 0 0 1 93.16571437 39.77142844l364.06857187 310.21714218v-743.77142812h-0.09142875z"  horiz-adv-x="1170" />

    
    <glyph glyph-name="file" unicode="&#58964;" d="M662.67826063 864H217.15478281C172.5356525 864 136.34782625 830.60869594 136.34782625 789.4956525v-810.991305C136.34782625-62.60869593999996 172.57739094-96 217.19652219-96h589.60695562c44.66086969 0 80.84869594 33.39130406 80.84869594 74.5043475V621.91304344L662.67826063 864z m-27.84000001-309.53739094h176.97391313v-575.58260906a6.97043437 6.97043437 0 0 0-5.00869594-1.87826063H217.19652219c-2.75478281 0-4.59130406 1.12695656-5.00869594 1.83652125V789.03652219c0.41739094 0.70956563 2.37913031 1.96173938 5.00869594 1.96173843h349.02260812v-170.46260812c0-36.39652219 30.80347781-66.07304344 68.61913032-66.07304344z m7.17913032 73.00173844V776.68173938l138.65739187-149.21739188h-138.65739187zM296.96 507.00521719c-19.5756525 0-35.47826062-15.36-35.47826062-34.22608688 0-18.78260906 15.90260906-34.14260906 35.47826062-34.14260812h245.63478281c19.53391312 0 35.47826062 15.36 35.47826063 34.1843475 0 18.78260906-15.9443475 34.1843475-35.47826063 34.1843475H296.96z m-35.47826062-211.70086969c0-18.8243475 15.90260906-34.22608688 35.47826062-34.22608688h430.33043438c19.53391312 0 35.47826062 15.40173938 35.47826156 34.22608688 0 18.78260906-15.9443475 34.1843475-35.47826156 34.18434844H296.96c-19.5756525 0-35.47826062-15.36-35.47826062-34.22608688z m281.11304343-143.20695656H296.96c-19.5756525 0-35.47826062-15.36-35.47826062-34.22608688 0-18.78260906 15.90260906-34.14260906 35.47826062-34.14260812h245.63478281c19.53391312 0 35.47826062 15.36 35.47826063 34.1843475 0 18.78260906-15.9443475 34.1843475-35.47826063 34.1843475z"  horiz-adv-x="1024" />

    
    <glyph glyph-name="folder" unicode="&#58965;" d="M1051.04 714.816h-464.928a9.6 9.6 0 0 0-3.696 3.024l-19.2 70.176a98.544 98.544 0 0 1-34.272 54.192A94.08 94.08 0 0 1 470.192 864H117.104C70.208 864 32 824.4 32 775.728v-783.6C32-56.49599999999998 70.208-96 117.104-96H1051.04c22.416 0 43.632 9.024 59.616 25.344 16.416 16.8 25.536 39.072 25.392 62.88V626.64c0.144 48.624-38.064 88.224-84.96 88.224zM114.56 775.776c0 2.352 1.44 4.224 2.544 4.224H470.24c1.44 0 4.32-0.96 7.104-3.36a16.32 16.32 0 0 0 5.184-6.768v-0.144l18-64.944H114.56V775.728z m938.64-783.648a4.8 4.8 0 0 0-1.2-3.36c-0.624-0.672-0.96-0.672-1.248-0.672H117.008c-0.96 0-2.592 1.776-2.592 4.32V616.1279999999999h938.688v-624.048h0.096z"  horiz-adv-x="1177" />

    
    <glyph glyph-name="eye" unicode="&#58966;" d="M1330.82352969 384.50823562c-0.45176437 8.07529406-12.81882375 48-30.09882375 89.50588219-17.67529406 42.80470594-47.60470594 104.75294156-89.05411782 156.48a591.47294156 591.47294156 0 0 1-198.77647031 161.28C917.45882375 839.77411781 805.76 864 681.12941188 864c-124.46117625 0-236.04705844-24.33882375-331.48235344-72.33882375a595.36941187 595.36941187 0 0 1-198.83294063-161.16705844C109.36470594 578.65411781 79.60470594 516.70588219 61.92941188 473.84470594 44.64941187 432.33882375 32.45176437 392.47058813 32 384.33882375v-0.56470594c0.45176437-8.07529406 12.81882375-48 30.09882375-89.61882375 17.78823563-42.80470594 47.60470594-104.80941187 88.88470594-156.42352969a591.47294156 591.47294156 0 0 1 198.83294062-161.22352875c96-48.16941188 207.47294156-72.50823562 331.48235344-72.50823562 124.23529406 0 235.70823563 24.33882375 331.53882375 72.50823562a594.9176475 594.9176475 0 0 1 198.83294062 161.11058813c41.44941187 51.72705844 71.37882375 113.73176438 89.05411782 156.53647031 17.28 41.50588219 29.64705844 81.43058812 30.09882375 89.50588219v0.84705938z m-106.72941188-0.28235343c-8.24470594-25.07294156-40.0376475-115.59529406-92.66823562-181.27058813l-0.73411782-0.79058812a491.29411781 491.29411781 0 0 0-164.4423525-133.44c-81.3176475-40.77176438-177.43058813-61.55294156-285.45882375-61.55294156-108.1976475 0-204.1976475 20.78117625-285.51529406 61.55294156a489.03529406 489.03529406 0 0 0-164.4423525 133.60941187c-52.91294156 66.01411781-84.87529406 156.81882375-93.06352969 182.00470594 8.18823563 25.07294156 40.09411781 115.76470594 93.06352969 182.06117625a491.85882375 491.85882375 0 0 0 164.61176438 133.44c81.43058812 40.77176438 177.54352969 61.38352969 285.74117625 61.38352969 108.64941187 0 204.59294156-20.61176437 285.34588218-61.38352969a489.03529406 489.03529406 0 0 0 164.44235344-133.60941188c52.96941187-66.29647031 84.87529406-156.98823562 93.06352969-182.00470593z m-542.90823562 250.89882375a249.82588219 249.82588219 0 0 1-249.31764657-249.76941188 249.93882375 249.93882375 0 0 1 249.31764657-249.76941187 249.93882375 249.93882375 0 0 1 249.37411781 249.76941187 249.82588219 249.82588219 0 0 1-249.37411781 249.76941188z m146.76705937-249.76941188c0-39.19058812-15.24705844-76.06588219-43.03058906-103.90588218a145.6376475 145.6376475 0 0 0-103.73647031-43.08705938c-39.13411781 0-75.95294156 15.24705844-103.73647032 43.08705938a146.08941187 146.08941187 0 0 0-43.03058812 103.90588218c0 39.19058812 15.24705844 76.1223525 43.03058812 103.90588219a145.6376475 145.6376475 0 0 0 103.73647032 43.08705938c39.13411781 0 75.95294156-15.24705844 103.73647031-43.08705938 27.78352969-27.78352969 43.03058812-64.71529406 43.03058906-103.90588219z"  horiz-adv-x="1385" />

    
    <glyph glyph-name="home" unicode="&#58967;" d="M958.51445938 459.71381625L563.28732125 844.04706094a75.75639 75.75639 0 0 1-102.51112594 0L65.50731687 459.71381625a38.81732344 38.81732344 0 0 1-2.79651656-54.51120937 37.89906469 37.89906469 0 0 1 53.96860219-2.7965175L511.99001844 786.73933406l395.31061687-384.33324469a37.89906469 37.89906469 0 0 1 53.96860219 2.79651751 38.81732344 38.81732344 0 0 1-2.75477812 54.51120937z m-105.59981626-142.53888281a38.39993344 38.39993344 0 0 1-38.23297687-38.60862844v-297.30730875h-151.88843156v257.57172562a76.79986688 76.79986688 0 0 1-76.46595375 77.30073563H437.69449625a76.79986688 76.79986688 0 0 1-76.46595469-77.30073563v-257.52998718h-151.93017v297.26557031a38.39993344 38.39993344 0 0 1-38.19123844 38.60862844 38.39993344 38.39993344 0 0 1-38.23297687-38.60862844v-297.30730875A76.79986688 76.79986688 0 0 1 209.29837156-96h605.38329469a76.79986688 76.79986688 0 0 1 76.46595375 77.25899625v297.30730875a38.39993344 38.39993344 0 0 1-38.23297687 38.60862844z m-415.30362562-78.34421157h148.71626344v-257.52998718H437.69449625v257.52998718z"  horiz-adv-x="1024" />

    
    <glyph glyph-name="folder-open" unicode="&#58968;" d="M1192.17239145 476.17939125a57.93310313 57.93310313 0 0 1-37.15014281 21.7429125V619.93220344c0 48.09359531-38.11009406 87.11564438-85.0517475 87.11564437h-469.65651656a9.55152281 9.55152281 0 0 0-2.87985656 2.39988l-19.00704938 79.91600438a95.80320937 95.80320937 0 0 1-34.07829562 53.22933843A95.17924125 95.17924125 0 0 1 485.64771739 864H138.43307802C91.44342739 864 53.33333333 824.97795094 53.33333333 776.88435563v-785.2407375c0-19.48702594 6.38368125-38.39808 18.1430925-53.66131688l-0.287985-0.57597187 3.887805-4.27178625c16.36718156-18.43107844 38.68606594-28.6545675 62.92485375-28.6545675 4.41577875 0 307.52062406-0.43197844 569.58752063-0.43197844 132.04139813 0 253.71531469 0.1439925 321.58392093 0.43197844 37.43812781 0.1439925 70.55647219 28.22258906 78.71606438 66.81265968l46.74966281 221.07694594 49.29353531 233.02834875a61.72491375 61.72491375 0 0 1-11.75941218 50.78146125z m-45.74171343 13.77531094h0.52797375-0.47997563zM512.57437114 687.32083406l0.28798594-1.10394469c4.70376469-18.91105406 15.64721719-35.75821219 31.72641375-48.52557375 16.51117406-13.3433325 35.51822437-20.30298469 55.00524937-20.30298468h467.97660094v-119.22603938H238.65206708c-27.88660594 0-51.59742-19.43902781-57.54912188-47.37363094l-40.17399187-189.87850593V774.34048312H485.79171083c0.43197844 0 2.39988-0.57597094 4.70376469-2.39987999a10.07949562 10.07949562 0 0 0 2.78386031-3.311835l19.24703812-81.30793407z m597.85810688-278.53007344l-43.10184469-204.75776249-44.34978281-209.60551969H173.90330521l87.59561999 414.36328219h848.93355282z"  horiz-adv-x="1229" />

    
    <glyph glyph-name="info-circle" unicode="&#58969;" d="M512 864C246.87999969 864 32 649.12000031 32 384s214.87999969-480 480-480 480 214.87999969 480 480S777.12000031 864 512 864z m291.64000031-771.64000031a410.35999969 410.35999969 0 0 0-131.16-88.39999969c-50.80000031-21.6-104.80000031-32.44000031-160.48000031-32.44000031-55.68 0-109.68 10.84000031-160.48000031 32.32000031a412.92 412.92 0 0 0-131.19999938 88.39999969 410.35999969 410.35999969 0 0 0-88.40000062 131.20000031A409.32 409.32 0 0 0 99.51999969 384c0 55.68 10.84000031 109.68 32.32000031 160.51999969a412.92 412.92 0 0 0 88.39999969 131.12000062 410.35999969 410.35999969 0 0 0 131.20000031 88.39999969c50.88 21.6 104.88 32.47999969 160.56 32.47999969 55.68 0 109.68-10.87999969 160.48000031-32.4 49.15999969-20.80000031 93.19999969-50.47999969 131.19999938-88.39999969 37.84000031-37.84000031 67.68-82.00000031 88.40000062-131.11999969 21.55999969-50.92000031 32.4-104.92000031 32.4-160.60000031a410.11999969 410.11999969 0 0 0-120.80000062-291.64000031z m-180.80000062 110.16h-79.92V530.71999969a33.72 33.72 0 0 1-33.72 33.76000031H419.19999969a33.72 33.72 0 1 1 0-67.51999969h56.24000062v-294.44000062H395.55999969a33.72 33.72 0 1 1 0-67.51999969h227.24000062a33.72 33.72 0 1 1 0 67.51999969zM475.4 657.28000031a33.76000031 33.76000031 0 1 0 67.48000031 0 33.76000031 33.76000031 0 0 0-67.48000031 0z"  horiz-adv-x="1024" />

    
    <glyph glyph-name="info-fill" unicode="&#58970;" d="M512 864C246.87999969 864 32 649.12000031 32 384s214.87999969-480 480-480 480 214.87999969 480 480S777.12000031 864 512 864z m110.80000031-661.51999969a33.72 33.72 0 1 0 0-67.48000031H395.6a33.72 33.72 0 1 0 0 67.51999969h79.87999969V496.92H419.19999969a33.72 33.72 0 1 0 0 67.51999969h90c18.64000031 0 33.72-15.12 33.72-33.75999938v-328.24000031h79.88000062z m-147.36 454.8a33.76000031 33.76000031 0 1 0 67.47999938 0 33.76000031 33.76000031 0 0 0-67.47999938 0z"  horiz-adv-x="1024" />

    
    <glyph glyph-name="like" unicode="&#58971;" d="M1103.42262875 666.97142812a328.41142875 328.41142875 0 0 1-70.40000062 105.96571501C974.82834313 831.63428531 898.30262844 864 817.75405719 864c-91.84000031 0-177.82857187-41.78285719-237.25714313-115.06285688C521.15977156 822.21714281 435.12548562 864 343.33119969 864c-80.4571425 0-156.98285719-32.54857125-215.45142844-91.70285719A333.25714313 333.25714313 0 0 1 32.01691437 535.0399996900001c0.73142813-98.28571406 42.97142813-189.8971425 115.79428594-251.56571438 3.33714281-2.78857125 6.40000031-5.48571469 9.50857125-8.36571375 16.00000031-14.35428562 62.17142813-56.59428562 120.68571375-110.03428594 100.11428531-91.61142844 224.86857188-205.57714312 275.885715-250.87999968a40.00000031 40.00000031 0 0 1 53.34857156 0c36.93714281 32.91428531 113.37142875 102.72 194.33142844 176.73142875 79.54285687 72.68571469 161.69142844 147.84 209.82857156 190.90285687C1085.82262812 343.8628575 1128.79405719 436.57142812 1129.15977125 536.0914284400001a337.92 337.92 0 0 1-25.7371425 130.87999969z m-463.13142844 25.18857188c43.79428594 57.00571406 108.38857125 89.69142844 177.37142813 89.69142844 58.7428575 0 114.55999969-23.77142812 157.30285687-66.88000032 22.39999969-22.49142844 40.22857125-49.1428575 52.70857219-79.35999937a258.19428563 258.19428563 0 0 0-4.89142875-207.40571438 249.14285719 249.14285719 0 0 0-64.00000031-83.06285718l-1.92-1.69142907a30919.77142875 30919.77142875 0 0 1-211.61142844-192.63999937A43721.64571406 43721.64571406 0 0 0 580.58834281 0.6400003100000049 64188.34285687 64188.34285687 0 0 0 363.90262813 197.94285749999995L313.15977125 244.25142844000004a17875.33714313 17875.33714313 0 0 1-103.4971425 94.39999968c-2.74285688 2.42285719-5.66857125 5.02857187-8.77714313 7.58857219-54.62857125 46.39999969-86.26285687 115.3828575-86.76571406 189.25714219a254.17142813 254.17142813 0 0 0 19.06285688 98.83428562A246.62857125 246.62857125 0 0 0 186.07405719 714.24c43.06285688 43.47428531 98.97142875 67.3828575 157.2571425 67.3828575 68.89142813 0 133.6228575-32.59428562 177.41714343-89.4628575a75.42857156 75.42857156 0 0 1 119.45142844 0z"  horiz-adv-x="1170" />

    
    <glyph glyph-name="link" unicode="&#58972;" d="M542.88776469 215.41621594000003l-192.50070281-192.62591907a140.15987813 140.15987813 0 0 0-99.71469563-41.36344218c-37.69040156 0-73.08515344 14.60868281-99.71469562 41.32170281a140.49379125 140.49379125 0 0 0-41.44692094 99.756435c0 37.69040156 14.65042219 73.08515344 41.32170375 99.71469563l192.66765844 192.62592a38.69214 38.69214 0 0 1 0 54.80343 38.65040156 38.65040156 0 0 1-54.80343094 0L96.07076188 277.14833625000006A217.25198531 217.25198531 0 0 1 32.0012525 122.50499249999996c0-58.39299281 22.70606719-113.27990156 64.06950937-154.55986594A217.87807125 217.87807125 0 0 1 250.58888844-95.99916561999999c55.972125 0 111.94425094 21.28693781 154.47638718 63.94429218l192.62591907 192.66765938a38.69214 38.69214 0 0 1 0 54.80343 38.85909656 38.85909656 0 0 1-54.80343 0z m385.12662094 584.63949187a218.71285313 218.71285313 0 0 1-309.11973094 0L426.26873563 607.38804938a38.69214 38.69214 0 0 1 0-54.80343094 38.65040156 38.65040156 0 0 1 54.80343 0l192.62592 192.62592a141.20335594 141.20335594 0 0 0 240.83457281-99.71469656c0-37.69040156-14.60868281-73.08515344-41.32170281-99.71469563l-192.62592-192.62591906a38.69214 38.69214 0 0 1 27.46432406-66.11472563 38.81735719 38.81735719 0 0 1 27.46432406 11.26955531l192.62592 192.66765844a218.7545925 218.7545925 0 0 1-0.12521812 309.0779925z m-444.52135219-501.49521656l109.7738175 109.81555687a38.69214 38.69214 0 0 1 0 54.84517032 38.65040156 38.65040156 0 0 1-54.80343094 0l-109.7738175-109.85729625a38.69214 38.69214 0 0 1 27.42258562-66.11472469c10.0173825 0 19.70085281 3.75651844 27.33910594 11.26955531z"  horiz-adv-x="1024" />

    
    <glyph glyph-name="img" unicode="&#58973;" d="M1040.96 864H120.22857125C71.67999969 864 32 823.58857125 32 774.17142844v-780.34285688C32-55.54285687000004 71.67999969-96 120.18285687-96H1040.91428563C1089.46285719-96 1129.14285688-55.58857124999997 1129.14285688-6.17142844V774.17142844C1129.14285688 823.54285687 1089.46285719 864 1040.96 864z m0-869.9428575l-0.09142875-0.09142781H120.41142875l-0.13714313 0.09142781v265.50857156l227.29142907 236.80000031 266.05714218-336.73142906a43.42857188 43.42857188 0 0 1 57.82857188-7.4971425l196.52571375 135.36 172.9828575-82.97142844v-210.46857187z m0 323.52l-144.59428594 60.75428625a43.29142875 43.29142875 0 0 1-51.42857156 1.50857156L654.17142875 248.68571438000004 382.17142813 592.00000031a44.06857125 44.06857125 0 0 1-31.90857094 15.26857125 43.79428594 43.79428594 0 0 1-32.73142875-13.48571437l-197.34857157-205.71428532V774.03428531l0.09142875 0.13714313h920.4571425l0.13714313-0.13714313 0.09142875-456.45714281zM808.32000031 682.05714281c-68.20571437 0-123.6571425-56.50285687-123.65714344-125.98857094 0-69.48571406 55.45142812-126.03428531 123.65714344-126.03428625s123.70285687 56.54857125 123.70285688 126.03428625-55.4971425 125.98857188-123.70285688 125.98857094z m0-162.19428562a35.88571406 35.88571406 0 0 0-35.52 36.20571468c0 19.93142813 15.95428594 36.16000031 35.52 36.15999938 19.61142844 0 35.52-16.22857125 35.52-36.15999938a35.88571406 35.88571406 0 0 0-35.52-36.20571468z"  horiz-adv-x="1170" />

    
    <glyph glyph-name="list-expend" unicode="&#58974;" d="M1116.23529406 773.87294156H77.17647031A45.06352969 45.06352969 0 1 0 77.17647031 864h1039.05882375a45.06352969 45.06352969 0 1 0 0-90.12705844zM79.66117625 467.2376475h709.10117625a45.06352969 45.06352969 0 1 0 0-90.12705938H79.66117625a45.06352969 45.06352969 0 1 0 0 90.12705938zM77.17647031-5.872941559999958h1035.27529407a45.06352969 45.06352969 0 1 0 0-90.12705844H77.17647031a45.06352969 45.06352969 0 1 0 0 90.12705844z m915.72705938 261.34588312a45.17647031 45.17647031 0 0 0-63.36 64.37647032l119.71764656 117.34588218-117.57176438 110.51294157a44.89411781 44.89411781 0 0 0-1.92 63.69882281 45.28941187 45.28941187 0 0 0 63.86823563 1.86352969l151.56705844-142.64470594a44.95058812 44.95058812 0 0 0 0.62117625-64.94117625l-152.9223525-150.21176438z"  horiz-adv-x="1204" />

    
    <glyph glyph-name="list-collapse" unicode="&#58975;" d="M77.17647031 773.87294156h1039.05882375A45.06352969 45.06352969 0 1 1 1116.23529406 864H77.17647031a45.06352969 45.06352969 0 1 1 0-90.12705844z m1036.57411781-306.63529406H404.64941187a45.06352969 45.06352969 0 1 1 1e-8-90.12705938h709.10117625a45.06352969 45.06352969 0 1 1 0 90.12705938z m2.48470594-473.11058906H80.96a45.06352969 45.06352969 0 1 1 0-90.12705844H1116.23529406a45.06352969 45.06352969 0 1 1 0 90.12705844zM200.50823562 255.47294155999998a45.17647031 45.17647031 0 0 1 63.36000001 64.37647031l-119.71764751 117.34588219 117.57176438 110.51294157a44.89411781 44.89411781 0 0 1 1.92 63.69882281 45.28941187 45.28941187 0 0 1-63.86823469 1.86352968L48.0376475 470.62588219a44.95058812 44.95058812 0 0 1-0.56470594-64.94117625l153.03529407-150.21176438z"  horiz-adv-x="1204" />

    
    <glyph glyph-name="location" unicode="&#58976;" d="M512 686.3200003100001c-55.2 0-107.11999969-22.36000031-146.23999969-62.88a217.72000031 217.72000031 0 0 1-60.52000031-151.92c0-57.48 21.52000031-111.28000031 60.52000031-151.96000031A201.6 201.6 0 0 1 512 256.67999999999995c55.27999969 0 107.11999969 22.36000031 146.23999969 62.88a217.72000031 217.72000031 0 0 1 60.52000031 151.96000031 217.87999969 217.87999969 0 0 1-60.52000031 151.92A201.91999969 201.91999969 0 0 1 512 686.3200003100001z m0-353.64c-73.72000031 0-133.63999969 62.23999969-133.63999969 138.79999969C378.36000031 548.1600000000001 438.27999969 610.39999969 512 610.39999969c73.72000031 0 133.63999969-62.23999969 133.63999969-138.84S585.72000031 332.68000030999997 512 332.68000030999997z m367.2 309.07999969a371.23999969 371.23999969 0 0 1-87.72 115.84000031c-37.2 33.31999969-79.99999969 59.47999969-127.39999969 77.88a418.68 418.68 0 0 1-152.00000062 28.51999969h-0.19999969c-52.00000031 0-103.12000031-9.6-151.96000031-28.51999969A415.08 415.08 0 0 1 232.52 757.60000031 370.92 370.92 0 0 1 144.8 641.76 327.64000031 327.64000031 0 0 1 111.99999969 499.27999969c0-68.4 16.2-138.76000031 48.12-209.07999938 26.4-58.2 63.79999969-116.92000031 111.20000062-174.6 84.79999969-103.2 180.28000031-177.04000031 217.32-203.92000031a39.48 39.48 0 0 1 46.71999938 0c37.03999969 26.88 132.6 100.72000031 217.28000062 203.92000031 47.32000031 57.67999969 84.79999969 116.4 111.19999969 174.6 31.99999969 70.32 48.16000031 140.80000031 48.16000031 209.07999938a327.31999969 327.31999969 0 0 1-32.80000031 142.48000031z m-40.39999969-142.60000031c0-57.12-13.84000031-116.59999969-41.20000031-176.71999969-23.44000031-51.91999969-57.31999969-104.88-100.56-157.56-67.48000031-82.24000031-143.04-145.12000031-185.04-177.16000031-42 32.16-117.6 94.92-185.04 177.16000031-43.2 52.68-77.11999969 105.76000031-100.68 157.68-27.31999969 60.12-41.16 119.59999969-41.16 176.71999969 0 37.44 8.4 74.04 25.08 108.64000031A297.28000031 297.28000031 0 0 0 280.4 700.24000031a341.56000031 341.56000031 0 0 0 105.07999969 64.27999969 349.87999969 349.87999969 0 0 0 126.44000062 23.71999969h0.24c43.2 0 85.8-7.99999969 126.36-23.71999969 39.19999969-15.19999969 74.56000031-36.79999969 105.19999969-64.27999969a292.32 292.32 0 0 0 70.00000031-92.32000031 250.00000031 250.00000031 0 0 0 25.08-108.76000031z"  horiz-adv-x="1024" />

    
    <glyph glyph-name="list" unicode="&#58977;" d="M32 768.9600525C32 821.44002375 75.09330969 864 128.21328031 864 181.38658344 864 224.53322656 821.44002375 224.53322656 768.9600525S181.33325 673.92010594 128.21328031 673.92010594A95.62661344 95.62661344 0 0 0 32 768.9600525z m1118.02604531-43.73330906H389.59980125c-30.39998344 0-55.14663563 24.42665344-55.14663563 54.39997031 0 30.07998375 24.74665312 54.50663625 55.14663563 54.50663625h760.58624438c30.39998344 0 55.14663563-24.42665344 55.14663562-54.45330281a54.93330281 54.93330281 0 0 0-55.30663594-54.45330375zM32 384.00026625c0 52.47997125 43.09330969 95.0399475 96.21328031 95.0399475 53.17330406 0 96.26661281-42.55997625 96.26661282-95.0399475s-43.09330969-95.0399475-96.26661282-95.03994656A95.62661344 95.62661344 0 0 0 32 384.00026625z m1118.02604531-43.89330844H389.59980125c-30.39998344 0-55.14663563 24.42665344-55.14663563 54.45330281s24.74665312 54.45330281 55.14663563 54.45330282h760.58624438c30.39998344 0 55.14663563-24.42665344 55.14663562-54.45330282a54.98663625 54.98663625 0 0 0-55.30663594-54.45330281zM32-0.9595190600000478c0 52.47997125 43.09330969 95.0399475 96.21328031 95.03994656 53.17330406 0 96.26661281-42.55997625 96.26661282-95.03994656S181.33325-95.99946655999997 128.21328031-95.99946655999997A95.62661344 95.62661344 0 0 0 32-0.9595190600000478z m1118.02604531-43.89330938H389.59980125c-30.39998344 0-55.14663563 24.42665344-55.14663563 54.39996938 0 30.07998375 24.74665312 54.50663625 55.14663563 54.50663718h760.58624438c30.39998344 0 55.14663563-24.42665344 55.14663562-54.45330375a54.93330281 54.93330281 0 0 0-55.30663594-54.45330281z"  horiz-adv-x="1252" />

    
    <glyph glyph-name="mark" unicode="&#58978;" d="M287.370815 754.14860531c0.99940594-7.20405281 1.41582562-14.57467313 1.20761625-21.98693531l-1.20761625-38.81027344 30.3569625-24.11067375 229.69685156-182.18341594 32.4807-25.73470875 39.39325969 12.86735438a311.27337937 311.27337937 0 0 0 197.96570531-1.70731875c19.155285-6.6627075 37.60265719-15.24094406 55.09226531-25.40157375l-181.39221937-182.22505781-45.97268438-46.22253563-13.57526718-13.70019281-181.60042875-182.39162625c-18.73886531 31.60621969-31.81443 66.62707781-38.35221188 102.98047781a312.06457594 312.06457594 0 0 0 10.49376469 151.24346625l12.86735437 39.4349025-25.73470875 32.4807-182.14177406 229.78013532-24.06903187 30.3569625-38.81027344-1.20761625-3.95598188-0.08328375c-6.12136313 0-12.20108344 0.41641969-18.19752093 1.24925812l145.45523906 145.33031344zM303.02817875 864a35.77041281 35.77041281 0 0 1-25.40157375-10.49376469L42.59958781 618.89563687a35.81205469 35.81205469 0 0 1 5.58001781-55.34211656 205.29468375 205.29468375 0 0 1 111.93349125-33.10532906c2.16538031 0 4.28911781 0 6.41285625 0.12492562l182.14177407-229.82177718a386.85347156 386.85347156 0 0 1 67.16842312-363.95041313 36.93638625 36.93638625 0 0 1 54.63420375-2.79000844l220.70219531 221.6183175 239.10792563-239.19120937a34.8959325 34.8959325 0 1 1 49.26239625 49.42896375l-239.19121031 239.19120937 220.70219625 221.65996032a36.89474438 36.89474438 0 0 1-2.99821875 54.63420375 385.18779469 385.18779469 0 0 1-242.23107 85.44922687c-40.72580156 0-81.32667656-6.45449812-120.42844313-19.19692687L365.69927375 729.82972219A204.878265 204.878265 0 0 1 332.92707969 847.75965 35.5622025 35.5622025 0 0 1 303.02817875 864z"  horiz-adv-x="1025" />

    
    <glyph glyph-name="locked" unicode="&#58979;" d="M848.08279813 630.07103906a382.56099 382.56099 0 0 1-78.33227157 121.37662219A363.63069094 363.63069094 0 0 1 653.90324094 833.81174063a348.07943156 348.07943156 0 0 1-283.83928875-0.11519438A362.74753313 362.74753313 0 0 1 254.21666563 751.44766125 384.86488031 384.86488031 0 0 1 175.884395 630.10943719 392.04533906 392.04533906 0 0 1 147.20096 481.73889937V-21.507545619999973C147.20096-62.59358999999995 179.14823938-96 218.54476437-96h586.76247001c39.396525 0 71.34380438 33.40641 71.22860906 74.49245437V422.60571469L876.76623312 443.11033875V481.73889937c0 51.29995781-9.63794156 101.17918406-28.68343499 148.33213969zM398.63219188 766.38455062h0.23038875l1.4207325 0.53757469A268.78720594 268.78720594 0 0 0 511.90680031 790.99777875c38.70535781 0 76.37396437-8.06361656 111.77707875-23.80686656a295.281945 295.281945 0 0 0 92.61639188-65.6992725 312.86830781 312.86830781 0 0 0 63.43378031-98.52971063c15.5896575-38.35977375 23.49968156-79.02343875 23.49968156-121.18463156v-31.64009344H220.618265V481.89249187a322.16066531 322.16066531 0 0 0 23.49968156 121.06943719 310.64121375 310.64121375 0 0 0 63.43378032 98.41451625 289.63741313 289.63741313 0 0 0 91.080465 65.00810531zM803.46412156 377.06548219v-398.57302781c0-0.72956531-0.11519438-1.15194562-0.23038875-1.53592688H220.84865469a4.49258625 4.49258625 0 0 0-0.23038969 1.53592687V377.06548219h582.84585656z m-325.46290781-164.3441775v-95.76504094c0-18.69991031 15.35926875-33.98238281 34.17437344-33.98238281s34.17437344 15.2824725 34.17437343 33.98238281v95.99542969c18.08553937 11.51945156 28.91382375 31.06412156 28.91382375 52.643895 0 34.67355-28.37624906 62.8578075-63.20339156 62.8578075-34.86554062 0-63.24178969-28.18425844-63.24178969-62.8578075 0-21.34938375 11.13547031-41.47002562 29.18261063-52.87428375z"  horiz-adv-x="1024" />

    
    <glyph glyph-name="menu" unicode="&#58980;" d="M370.70514687 331.72324781h-249.59977312A89.19264656 89.19264656 0 0 1 32 242.57423813000003v-249.46886438C32-56.11639968999998 72.01450906-96 121.10537375-96h249.81795469c23.78179687 0 46.12359469 9.20726438 62.92357875 26.05088531 16.84362094 16.84362094 26.09452219 39.27269156 25.96361343 63.05448844V242.61787405999996a89.10537375 89.10537375 0 0 1-89.10537374 89.14900969z m16.14543938-338.92332843a16.58180345 16.58180345 0 0 0-4.66908656-11.47635375 15.97089469 15.97089469 0 0 0-11.17089844-4.62544969H121.10537375a16.23271219 16.23271219 0 0 0-16.14544031 16.23271219v249.64341c0 8.90180999 7.24362937 16.18907625 16.14544031 16.18907531H370.61787406c8.90180999 0 16.18907625-7.28726625 16.18907625-16.14543938v-249.81795468h0.13090875zM370.74878281 863.99912719h-249.59977312A89.2362825 89.2362825 0 0 1 32 774.89375344V525.38125313c0-49.22177344 40.01450906-89.14900969 89.10537375-89.14900968h249.81795469c23.78179687 0 46.12359469 9.25090031 62.92357875 26.0508853 16.84362094 16.84362094 26.09452219 39.27269156 25.96361343 63.09812437V774.89375344A89.19264656 89.19264656 0 0 1 370.70514687 863.99912719z m16.14544032-338.92332844a16.58180345 16.58180345 0 0 0-4.66908658-11.47635281 15.97089469 15.97089469 0 0 0-11.17089936-4.58181375H121.10537375a16.23271219 16.23271219 0 0 0-16.14544031 16.14543937V774.93739031c0 8.90180999 7.24362937 16.14544031 16.14544031 16.14543938H370.61787406c8.90180999 0 16.18907625-7.24362937 16.18907625-16.14543938v-249.81795469h0.13090875z m516.13044-193.35255094h-249.59977314a89.19264656 89.19264656 0 0 1-89.10537374-89.14900969v-249.46886437c0-49.22177344 40.01450906-89.10537375 89.14900969-89.10537375h249.64340906c23.82543281 0 46.12359469 9.20726438 62.96721563 26.05088531 16.84362094 16.84362094 26.05088531 39.27269156 25.96361343 63.05448844V242.61787405999996a89.01810094 89.01810094 0 0 1-89.01810093 89.14900969z m16.10180343-338.92332844a16.58180345 16.58180345 0 0 0-4.71272343-11.47635375 15.97089469 15.97089469 0 0 0-11.17089844-4.62544968H653.38125313a16.23271219 16.23271219 0 0 0-16.23271219 16.23271218v249.64341c0 8.90180999 7.33090219 16.18907625 16.23271218 16.18907532h249.46886438c8.90180999 0 16.14544031-7.28726625 16.14543937-16.14543938v-249.81795469zM902.98102625 863.99912719h-249.59977312a89.19264656 89.19264656 0 0 1-89.10537375-89.10537375V525.38125313c0-49.22177344 40.01450906-89.14900969 89.14901063-89.14900968h249.64340905c23.82543281 0 46.12359469 9.25090031 62.96721563 26.0508853 16.84362094 16.84362094 26.05088531 39.27269156 25.9636125 63.09812437V774.89375344A89.10537375 89.10537375 0 0 1 902.98102625 863.99912719z m16.10180344-338.92332844a16.58180345 16.58180345 0 0 0-4.7127225-11.47635281 15.97089469 15.97089469 0 0 0-11.17089938-4.58181375H653.38125313a16.23271219 16.23271219 0 0 0-16.23271219 16.14543937V774.93739031c0 8.90180999 7.33090219 16.14544031 16.23271218 16.14543938h249.46886438c8.90180999 0 16.14544031-7.24362937 16.14543937-16.14543938v-249.81795469z"  horiz-adv-x="1024" />

    
    <glyph glyph-name="output" unicode="&#58981;" d="M337.04895875 609.09143531a41.4168075 41.4168075 0 0 0-29.66833125 12.38847094 41.91966094 41.91966094 0 0 0 0 59.42809031L478.25924469 851.64947156a41.91966094 41.91966094 0 0 0 59.42809031 0l170.83290281-170.741475a41.91966094 41.91966094 0 0 0-29.71404562-71.67942 41.87394656 41.87394656 0 0 0-29.8054725 12.25132969L549.93866469 720.58767563v-524.06432907a42.01108875 42.01108875 0 1 0-84.06789094 0V720.58767563l-99.06205594-99.19919719a42.23965781 42.23965781 0 0 0-29.75975906-12.29704313z m617.86928438-362.73992062a37.02827156 37.02827156 0 0 0 37.07398593-36.98255813v-238.809495c0-36.66256031-29.80547344-66.55946156-66.51374812-66.55946156H98.51374719A66.605175 66.605175 0 0 0 32-29.440538439999955V209.36895656000002a37.02827156 37.02827156 0 1 0 74.05654313 0v-209.46116156c0-12.20561531 9.96563344-22.07982094 22.0341075-22.07982094h767.67378562a22.12553531 22.12553531 0 0 1 22.07982094 22.07982094v209.36973375c0 20.47983375 16.59415125 37.07398594 37.07398594 37.07398594z"  horiz-adv-x="1024" />

    
    <glyph glyph-name="message" unicode="&#58982;" d="M532.86956562-96a35.81217375 35.81217375 0 0 0-29.05043531 14.90086969l-72.62608687 100.88347781C199.04 60.52173936999998 32 234.15652219000003 32 437.42608687 32 672.70956562 256.72347781 864 532.86956562 864s500.86956562-191.4156525 500.86956469-426.57391312c0-203.31130406-166.87304344-376.82086969-399.23478281-417.51652125l-72.5843475-100.92521813A35.60347781 35.60347781 0 0 0 532.86956562-96z m1e-8 890.2956525c-236.7443475 0-429.37043438-159.48521719-429.37043532-355.49217469 0-172.2156525 148.71652219-319.3043475 353.36347875-349.60695562 9.6-1.37739094 18.28173938-6.67826063 23.87478188-14.48347875L532.86956562 2.29565249999996l52.17391219 72.50086969a35.60347781 35.60347781 0 0 0 23.83304438 14.48347781c204.77217375 30.30260906 353.36347781 177.39130406 353.36347781 349.60695656 0 196.00695656-192.62608687 355.40869594-429.37043438 355.40869594z m-207.77739188-408a53.84347781 53.84347781 0 0 0-54.01043438 53.59304344c0 29.63478281 24.16695656 53.59304344 54.01043438 53.59304343 29.84347781 0 54.01043438-24 54.01043531-53.59304343 0-29.59304344-24.20869594-53.59304344-54.01043531-53.59304344z m378.07304344 0a53.84347781 53.84347781 0 0 0-53.968695 53.59304344c0 29.63478281 24.16695656 53.59304344 53.968695 53.59304343a53.84347781 53.84347781 0 0 0 54.01043531-53.59304343 53.92695656 53.92695656 0 0 0-54.01043531-53.59304344z m-188.99478281 0a53.84347781 53.84347781 0 0 0-53.968695 53.59304344c0 29.63478281 24.12521719 53.59304344 53.968695 53.59304343a53.84347781 53.84347781 0 0 0 54.01043531-53.59304343 53.84347781 53.84347781 0 0 0-54.01043531-53.59304344z"  horiz-adv-x="1068" />

    
    <glyph glyph-name="question-fill" unicode="&#58983;" d="M512 864C246.87999969 864 32 649.12000031 32 384s214.87999969-480 480-480 480 214.87999969 480 480S777.12000031 864 512 864z m-4.87999969-622.39999969a33.79999969 33.79999969 0 0 0-33.64000031 37.11999938c4.60000031 46.8 38.88 84.55999969 76.68 122.36000062 60.48 60.43999969 61.48000031 79.68 62.52 99.99999938a86.80000031 86.80000031 0 0 1-24.76000031 64.8 105.31999969 105.31999969 0 0 1-76.11999938 32.4h-0.16000031a100.96000031 100.96000031 0 0 1-100.60000031-100.75999969 33.72 33.72 0 1 0-67.51999969 0A167.20000031 167.20000031 0 0 0 392.64000031 616.39999969a167.11999969 167.11999969 0 0 0 118.8 49.40000062 173.20000031 173.20000031 0 0 0 125.43999938-53.44000031c30.07999969-31.68 45.48-72.43999969 43.2-114.79999969-2.32000031-43.44-15.64000031-77.64-82.2-144.20000062-33.76000031-33.76000031-55.03999969-59.08000031-57.19999969-81.27999938a33.76000031 33.76000031 0 0 0-33.55999969-30.48z m-41.80000031-98.72000062a40.60000031 40.60000031 0 1 0 81.19999969 0 40.60000031 40.60000031 0 0 0-81.19999969 0z"  horiz-adv-x="1024" />

    
    <glyph glyph-name="refresh" unicode="&#58984;" d="M875.03164344 355.27720688c-22.27198219 0-40.24316812-18.316785-40.24316813-40.97276719a328.93413656 328.93413656 0 0 0-94.57912406-232.31981438 317.49094594 317.49094594 0 0 0-228.24941813-96.23032312 317.49094594 317.49094594 0 0 0-228.28781718 96.23032312 329.31813656 329.31813656 0 0 0-94.57912407 232.31981438c0 87.70552969 33.56157281 170.30386406 94.57912407 232.31981437A317.87494594 317.87494594 0 0 0 511.99833313 642.89297719h0.95999999L442.37918937 549.31225219a41.27996719 41.27996719 0 0 1 7.48799344-57.331155c7.29599438-5.75999531 15.85918687-8.44799344 24.38398125-8.4479925 12.01919063 0 24.07678031 5.52959531 31.94877375 16.05118687l126.41269875 167.88466594a41.27996719 41.27996719 0 0 1-7.44959344 57.36955406L457.62397719 855.55200656a39.70556812 39.70556812 0 0 1-56.332755-7.56479343 41.27996719 41.27996719 0 0 1 7.44959343-57.36955407l84.8639325-66.2399475c-47.92316156-2.15039813-94.46392406-12.78718969-138.54708937-31.87197468a402.04767844 402.04767844 0 0 1-128.14069687-87.89752969A413.33726906 413.33726906 0 0 1 108.79865562 314.41963969000005a413.33726906 413.33726906 0 0 1 118.11830625-290.1885675 400.89567937 400.89567937 0 0 1 128.14069688-87.93592969A393.983685 393.983685 0 0 1 511.99833313-95.99923219000004a393.983685 393.983685 0 0 1 157.01747437 32.29437469 398.66848125 398.66848125 0 0 1 128.02549781 87.70552969A413.33726906 413.33726906 0 0 1 915.19801062 314.18923969a40.58876719 40.58876719 0 0 1-40.16636718 41.08796719z"  horiz-adv-x="1024" />

    
    <glyph glyph-name="question-circle" unicode="&#58985;" d="M512 864C246.87999969 864 32 649.12000031 32 384s214.87999969-480 480-480 480 214.87999969 480 480S777.12000031 864 512 864z m291.64000031-771.64000031a410.35999969 410.35999969 0 0 0-131.16-88.39999969c-50.80000031-21.6-104.80000031-32.44000031-160.48000031-32.44000031-55.68 0-109.68 10.84000031-160.48000031 32.32000031a412.92 412.92 0 0 0-131.19999938 88.39999969 410.35999969 410.35999969 0 0 0-88.40000062 131.20000031A409.32 409.32 0 0 0 99.51999969 384c0 55.68 10.84000031 109.68 32.32000031 160.51999969a412.92 412.92 0 0 0 88.39999969 131.12000062 410.35999969 410.35999969 0 0 0 131.20000031 88.39999969c50.88 21.6 104.88 32.47999969 160.56 32.47999969 55.68 0 109.68-10.87999969 160.48000031-32.4 49.15999969-20.80000031 93.19999969-50.47999969 131.19999938-88.39999969 37.84000031-37.84000031 67.68-82.00000031 88.40000062-131.11999969 21.55999969-50.92000031 32.4-104.92000031 32.4-160.60000031a410.11999969 410.11999969 0 0 0-120.80000062-291.64000031z m-296.52 149.20000031c-1.12000031 0-2.23999969 0.12-3.36 0.24a33.79999969 33.79999969 0 0 0-30.28000031 36.91999969c4.60000031 46.8 38.88 84.55999969 76.68 122.36000062 60.48 60.43999969 61.48000031 79.68 62.52 99.99999938a86.80000031 86.80000031 0 0 1-24.76000031 64.8 105.31999969 105.31999969 0 0 1-76.11999938 32.4h-0.16000031a100.96000031 100.96000031 0 0 1-100.60000031-100.75999969 33.72 33.72 0 1 0-67.51999969 0A167.20000031 167.20000031 0 0 0 392.64000031 616.39999969a167.11999969 167.11999969 0 0 0 118.8 49.40000062 173.20000031 173.20000031 0 0 0 125.43999938-53.44000031c30.07999969-31.68 45.48-72.43999969 43.2-114.79999969-2.32000031-43.44-15.64000031-77.64-82.2-144.20000062-33.76000031-33.76000031-55.03999969-59.08000031-57.19999969-81.27999938a33.76000031 33.76000031 0 0 0-33.55999969-30.48z m-41.80000031-98.68000031a40.60000031 40.60000031 0 1 0 81.19999969 0 40.60000031 40.60000031 0 0 0-81.19999969 0z"  horiz-adv-x="1024" />

    
    <glyph glyph-name="save" unicode="&#58986;" d="M685.36727281 864H122.10909125A90.06545438 90.06545438 0 0 1 32 773.89090875v-779.7818175C32-55.67999999999995 72.32-96 122.10909125-96h779.7818175A90.06545438 90.06545438 0 0 1 992-5.890908749999994V557.45454563L685.36727281 864z m-401.89090875-90.10909125h271.59272719v-257.71636312c0-24.87272719-20.16-45.07636406-45.07636406-45.07636407H328.50909125c-24.87272719 0-45.07636406 20.16-45.07636406 45.07636406V773.89090875z m618.41454469-779.7818175H122.10909125V773.89090875h71.21454469v-257.71636312a135.27272719 135.27272719 0 0 1 135.18545531-135.18545438h181.52727281a135.27272719 135.27272719 0 0 1 135.1418175 135.18545438V773.89090875h2.88l253.70181844-253.7018175v-526.08h0.13090875zM458.67636406 561.25090875c24.87272719 0 45.07636406 20.11636406 45.07636313 45.03272719V660.13090875a45.03272719 45.03272719 0 1 1-90.10909125 0v-53.84727281c0-24.87272719 20.11636406-45.03272719 45.03272812-45.03272719z"  horiz-adv-x="1024" />

    
    <glyph glyph-name="search" unicode="&#58987;" d="M979.46281437-23.219378440000014l-218.66407874 218.41365188a408.11173219 408.11173219 0 0 1 91.99000312 258.73232062c0 226.51077656-183.64610531 410.07340594-410.36557031 410.07340594S32.01586062 680.43736969 32.01586062 453.92659406s183.68784375-410.07340594 410.40730782-410.07340687a408.40389656 408.40389656 0 0 1 257.93930343 91.19698687l218.70581625-218.53886531a42.69771938 42.69771938 0 0 1 60.39452625 0 42.57250594 42.57250594 0 0 1 0 60.26931281z m-407.2769775 169.99786031a331.18905656 331.18905656 0 0 0-129.80440593-26.1278325 333.06725531 333.06725531 0 0 0-129.76266844 26.1278325 333.48463313 333.48463313 0 0 0-106.09736438 71.45503032 332.02381125 332.02381125 0 0 0-97.66633781 235.69308187 332.39945156 332.39945156 0 0 0 97.66633781 235.69308094A332.31597562 332.31597562 0 0 0 442.42316844 787.20253781a333.06725531 333.06725531 0 0 0 129.80440687-26.1278325 333.48463313 333.48463313 0 0 0 106.05562594-71.45503031 330.85515469 330.85515469 0 0 0 71.53850531-106.01388844c17.36290406-41.0699475 26.1278325-84.6858975 26.1278325-129.6791925a332.39945156 332.39945156 0 0 0-97.66633781-235.69308187 335.23761844 335.23761844 0 0 0-106.09736438-71.45503032z"  horiz-adv-x="1024" />

    
    <glyph glyph-name="Shape" unicode="&#58988;" d="M968.42741844 467.25818156l-0.26181844 1.00363688-137.28 361.30909031A47.47636406 47.47636406 0 0 1 785.89650875 864H229.53287281c-20.81454563 0-39.27272719-14.31272719-45.16363687-34.95272719L56.07832719 471.44727281l-0.39272719-0.87272718-0.21818156-1.04727282a48.69818156 48.69818156 0 0 1-1.22181844-18.76363687 101.06181844 101.06181844 0 0 1-0.26181844-6.06545438v-463.63636312C53.98378156-61.396364059999996 87.3656-96 128.34014563-96h767.25818156c41.01818156 0 74.4 34.60363594 74.53090875 77.06181844V444.65454563c0 1.65818156 0 3.27272719-0.13090875 4.66909031a51.05454563 51.05454563 0 0 1-1.61454563 17.89090969z m-361.87636407 54.50181844l-0.34909031-19.89818156c-1.00363594-56.90181844-38.92363594-95.17090875-94.34181844-95.17090969-27.05454562 0-50.26909125 8.98909125-67.02545437 26.09454562-16.75636406 17.10545438-25.92 40.93090875-26.44363688 69.07636407l-0.34909031 19.89818156h-251.78181844l97.30909032 244.93090875h488.29090968l99.92727282-244.93090875h-245.23636407z m-458.74909031-97.30909125h192.43636313c29.71636406-72.39272719 92.94545437-115.06909125 171.75272718-115.06909031 41.23636406 0 79.50545437 11.91272719 110.44363688 34.47272719 27.18545437 19.72363594 48.34909125 47.38909125 62.05090875 80.55272718h191.43272719v-423.09818156H147.80196406v423.09818156z"  horiz-adv-x="1024" />

    
    <glyph glyph-name="star" unicode="&#58989;" d="M511.87460656 786.88581937c5.67503906 0 11.4752625-3.0044325 14.35450969-9.13848093l111.83164781-238.56027188a15.64808531 15.64808531 0 0 1 11.85081657-8.88811219l251.32910906-38.473425a15.81499781 15.81499781 0 0 0 8.88811218-26.6643375l-182.76963281-187.56837843a15.68981344 15.68981344 0 0 1-4.25627906-13.60340157l42.98007375-264.18140343a15.85672594 15.85672594 0 0 0-15.60635719-18.44387625 15.27253125 15.27253125 0 0 0-7.5945375 2.08641093l-223.37119687 123.59900813a16.02363937 16.02363937 0 0 1-15.189075 0l-223.412925-123.64073625a15.56462813 15.56462813 0 0 0-7.5945375-2.04468281 15.89845406 15.89845406 0 0 0-15.64808531 18.44387625l43.02180187 264.13967437a15.68981344 15.68981344 0 0 1-4.25627906 13.64513063L113.57868312 465.16119188a15.85672594 15.85672594 0 0 0 8.84638407 26.70606562l251.45429344 38.43169688c5.25775688 0.75110812 9.59749219 4.17282281 11.89254468 8.88811218l111.78991969 238.56027188a15.68981344 15.68981344 0 0 0 14.35450969 9.13848094zM511.87460656 863.99958281a92.3028375 92.3028375 0 0 1-83.95719187-53.45385844L329.89781 601.65422156l-218.98973344-33.54949406A92.42802187 92.42802187 0 0 1 36.84047469 505.76275687a92.59493531 92.59493531 0 0 1 21.61522125-94.38924843l161.23786781-165.49414782-38.09787094-233.55288375a92.72011969 92.72011969 0 0 1 20.86411313-75.11080875 92.84530406 92.84530406 0 0 1 115.79582906-21.19793906l193.61897156 107.15808656 193.66069969-107.24154281c13.81204313-7.5945375 29.33494312-11.68390313 44.94130031-11.68390312 27.29026031 0 53.07830438 12.01772906 70.85452875 32.88184218a92.72011969 92.72011969 0 0 1 20.86411406 75.11080782l-38.09787093 233.51115656 161.23786781 165.535875c24.41101219 25.03693594 32.63147344 61.17358031 21.61522125 94.38924937a92.42802187 92.42802187 0 0 1-74.02587469 62.34197063l-219.03146156 33.63295031-98.01960469 208.89150281A92.38629375 92.38629375 0 0 1 511.91633469 863.99958281z"  horiz-adv-x="1024" />

    
    <glyph glyph-name="setting" unicode="&#58990;" d="M985.13567 460.38449531l-3.96315 25.2807225-77.17712531 25.73961469a407.41178531 407.41178531 0 0 1-25.11385313 60.69876562l36.41925938 72.67164938-14.93481657 20.85868219a491.59742719 491.59742719 0 0 1-107.63080125 107.38049718l-20.73353062 14.93481657-72.71336719-36.37754157a412.37615156 412.37615156 0 0 1-60.69876562 25.11385313L612.89162281 853.57065844l-25.03041843 3.92143218A476.20371937 476.20371937 0 0 1 511.85216563 864c-23.36172469 0-47.55779625-2.08586813-76.09247344-6.63306094l-25.23900563-4.00486687-25.65618-77.17712531c-21.27585562-6.96679969-41.71736531-15.35199-60.74048344-25.03041844l-72.58821468 36.46097625-20.73352969-14.93481657a482.16930281 482.16930281 0 0 1-107.50564969-107.38049718l-14.93481656-20.85868219 36.3775425-72.6299325a417.17364844 417.17364844 0 0 1-25.03041938-60.61533094l-77.13540749-25.5310275-4.00486688-25.2807225A483.37910625 483.37910625 0 0 1 32.10246969 384.25030406c0-23.57031094 2.08586813-48.39214312 6.50790843-76.05075562l4.00486782-25.23900657 77.1354075-25.78133062c6.71649563-20.85868219 15.14340375-41.21675625 25.15557093-60.69876656l-36.21067312-72.46306219 14.93481656-20.60837812c15.60229406-21.69303 31.70519719-40.71614812 49.14305625-58.27915875 16.31148938-16.39492406 35.37632531-32.49782719 58.19572406-49.22649094l20.73352969-14.93481656 72.58821563 36.3775425c19.60716187-10.01216719 39.88180125-18.48079219 60.69876562-25.11385407l25.69789688-77.17712531 25.23900562-4.04658375c27.6586125-4.42204031 52.48044469-6.50790937 75.92560406-6.50790937 23.48687625 0 48.35042625 2.08586813 76.09247344 6.50790937l25.2807225 4.00486688 25.65618 77.17712531c20.60837813 6.75821344 40.92473531 15.18512063 60.61533094 25.03041844l72.71336719-36.33582469 20.69181281 14.93481656c22.65252938 16.2697725 41.71736531 32.37267469 58.19572406 49.22649094 17.14583719 17.10411937 33.16530469 36.29410781 49.14305531 58.23744094l14.93481657 20.85868218-36.37754157 72.67164938c10.01216719 19.44029156 18.35564063 39.75664875 25.11385313 60.69876656l77.1354075 25.73961375 4.00486781 25.28072344c4.42204031 27.6586125 6.50790937 52.48044469 6.50790844 75.92560406a425.72570812 425.72570812 0 0 1-6.42447375 75.92560406z m-68.9170875-75.29984344v-0.50060906c0-14.18390437-0.91778156-28.61811188-2.71162875-44.09525437l-37.25360625-12.39005719-32.95671844-11.18025375-10.17903656-33.12358781a310.37719406 310.37719406 0 0 0-22.81939875-55.4423775l-16.22805469-30.57882844 33.04015219-65.95515469a381.58873594 381.58873594 0 0 0-29.2438725-33.04015219l-0.20858719-0.20858718a348.0896925 348.0896925 0 0 0-32.83156594-29.03528625l-65.74656656 32.95671843-30.53711156-15.89431593a353.22092813 353.22092813 0 0 0-56.15157281-23.27829l-32.95671844-10.30418907-10.7213625-32.58126187-12.431775-37.25360625a357.89327344 357.89327344 0 0 0-88.14879188 0l-12.431775 37.25360625-10.84651406 32.91500156-33.12358781 10.17903656a316.13419125 316.13419125 0 0 0-55.48409531 22.81939875l-30.70398094 16.01946844-31.03771969-15.43542562-35.04258562-17.52129282a381.58873594 381.58873594 0 0 0-33.04015313 29.2438725 373.78758938 373.78758938 0 0 0-29.20215562 33.04015313l32.78984906 65.74656656-15.97775063 30.49539375a323.351295 323.351295 0 0 0-23.06970281 55.77611719l-10.1790375 33.12358781-70.08517312 23.23657219a357.55953375 357.55953375 0 0 0 0 88.14879188l69.87658593 23.23657218 10.1790375 33.04015313a342.49956563 342.49956563 0 0 0 23.06970282 55.94298562l15.97775062 30.49539375-15.35199 30.87085031-17.47957594 35.00086875a405.40935188 405.40935188 0 0 0 62.28402563 62.24230875l65.91343687-32.91500062 30.57882844 16.10290219A340.4136975 340.4136975 0 0 0 411.73049 705.39057844l32.9567175 10.30418906 10.92994969 32.70641437 12.39005812 37.25360719a392.56040344 392.56040344 0 0 0 43.97010188 2.71162875c14.10046969 0 28.61811188-0.95949938 44.01182062-2.71162875l23.36172375-69.75143437 32.91500063-10.22075438c19.14827062-5.96558344 37.96280156-13.76673 55.98470437-23.027985l30.49539375-15.97775062 65.78828438 32.9567175c22.94455031-18.43907531 43.97010281-39.38119219 62.57604656-62.40917719l-32.83156594-65.7465675 15.81088125-30.41195906c9.34468969-18.06361875 17.22927188-37.00330219 23.23657219-56.27672531l10.30418906-32.91500063 32.74813125-10.92994969 37.21189031-12.43177406c2.00243344-15.76916437 2.83678125-29.95306781 2.62819313-43.38606z m-404.11611281 182.51347126A183.55640531 183.55640531 0 0 1 328.71293375 384.25030406a183.55640531 183.55640531 0 0 1 183.38953594-183.34781812 183.55640531 183.55640531 0 0 1 183.38953593 183.34781812 183.55640531 183.55640531 0 0 1-183.38953593 183.34781907z m76.05075562-259.39857469a107.00504063 107.00504063 0 0 0-76.05075562-31.53832782 106.54614937 106.54614937 0 0 0-76.09247344 31.53832782 106.92160594 106.92160594 0 0 0-31.53832781 76.05075562c0 28.70154656 11.13853688 55.73439938 31.53832781 76.05075656a107.00504063 107.00504063 0 0 0 76.09247344 31.53832782c28.70154656 0 55.77611719-11.13853688 76.05075562-31.53832782 20.31635625-20.44150875 31.58004562-47.34920906 31.58004563-76.05075656s-11.26368844-55.73439938-31.58004563-76.05075562z"  horiz-adv-x="1024" />

    
    <glyph glyph-name="tags" unicode="&#58991;" d="M967.59943063 338.83945687999994L464.36006 846.79882125A57.6799275 57.6799275 0 0 1 422.96011156 863.9988H117.44049312C70.3205525 863.9988 32.0006 826.11884719 32.0006 779.43890531v-313.67960719c0-15.11998125 6.2399925-29.91996281 16.95997875-40.39995l502.51937156-496.63937906c16.15998-15.95998031 37.63995281-24.71996906 60.39992438-24.71996906 22.75997156 0 44.23994438 8.79998906 60.39992531 24.71996906l294.67963125 291.15963563a83.999895 83.999895 0 0 1 0.67999875 118.95985218zM105.00050844 779.43890531c0 6.39999188 5.55999281 11.59998562 12.479985 11.59998563h299.399625l498.7193775-503.59937063a11.19998625 11.19998625 0 0 0 3.19999594-7.83999c0-1.59999844-0.39999937-4.83999375-3.31999594-7.75999031l-294.55963219-291.15963562a12.87998344 12.87998344 0 0 0-9.11998875-3.67999594 12.71998406 12.71998406 0 0 0-9.11998875 3.67999594L104.96050906 472.59928969V779.43890531z m163.27979625-26.55996656a125.27984344 125.27984344 0 0 1-125.15984344-125.19984375 125.27984344 125.27984344 0 0 1 125.19984375-125.19984281 125.27984344 125.27984344 0 0 1 125.11984313 125.19984281 125.27984344 125.27984344 0 0 1-125.15984344 125.19984375z m0-177.39977813a52.279935 52.279935 0 0 0-52.19993438 52.19993438c0 28.79996437 23.43997031 52.19993437 52.19993438 52.19993531s52.19993437-23.43997031 52.19993437-52.19993531-23.43997031-52.19993437-52.19993437-52.19993438z"  horiz-adv-x="1024" />

    
    <glyph glyph-name="share" unicode="&#58992;" d="M892.69468625 298.34907094000005a43.10193094 43.10193094 0 0 1-43.34191875-42.813945v-243.97228875c0-12.3354075-10.03151812-22.27093125-22.51092-22.27093125H140.95477062a22.31892844 22.31892844 0 0 0-22.55891718 22.27093125V714.0091199999999c0 12.3354075 10.07951625 22.27093125 22.55891719 22.27093031h308.00121562a43.10193094 43.10193094 0 0 1 43.29392156 42.86194313 43.05393375 43.05393375 0 0 1-43.29392156 42.813945H141.00276781C80.86165438 821.95593844 32 773.62225781 32 714.1531125v-702.44628281C32-47.666320309999946 80.86165438-96 141.00276781-96h686.12706563c60.09311531 0 108.95477063 48.33367969 108.95477062 107.802825v243.73230094a43.38991687 43.38991687 0 0 1-43.38991781 42.813945zM440.46039406 549.85699875c-52.0295025-77.75626781-64.74889219-154.2165975-65.948835-162.71218969a43.00593562 43.00593562 0 0 1 42.813945-48.95764968c21.31097719 0 39.694095 15.83923969 42.813945 36.38225343 0.38398125 2.87986219 11.37545438 67.48476094 53.85341532 129.8337675 55.7733225 81.83607188 139.62529781 123.5940675 248.77205906 123.97804969a43.10193094 43.10193094 0 0 1 47.6617125 42.57395625v50.39758125l121.57816406-114.42650812-121.7221575-100.26718688V547.6491046900001a43.10193094 43.10193094 0 0 1-43.29392156 42.813945 43.10193094 43.10193094 0 0 1-43.34191969-42.813945v-132.32964844c0-16.51120781 9.8395275-31.67847937 25.05479719-38.78213813a43.82189625 43.82189625 0 0 1 45.83779968 5.75972344L1024.59235531 571.6479525a42.57395625 42.57395625 0 0 1 15.35926313 31.48648875 42.52595906 42.52595906 0 0 1-13.29536157 32.54243812l-229.90896468 216.46960969a43.34191969 43.34191969 0 0 1-46.79775375 8.35159875 42.71794969 42.71794969 0 0 1-26.11074657-39.35811093v-108.76277907c-152.10469875-12.57539625-237.9725775-95.03543812-283.33040062-162.52019906z"  horiz-adv-x="1075" />

    
    <glyph glyph-name="time-circle" unicode="&#58993;" d="M512 864C246.87999969 864 32 649.12000031 32 384s214.87999969-480 480-480 480 214.87999969 480 480S777.12000031 864 512 864z m291.64000031-771.64000031a410.35999969 410.35999969 0 0 0-131.16-88.39999969c-50.80000031-21.6-104.80000031-32.44000031-160.48000031-32.44000031-55.68 0-109.68 10.84000031-160.48000031 32.32000031a412.92 412.92 0 0 0-131.19999938 88.39999969 410.35999969 410.35999969 0 0 0-88.40000062 131.20000031A409.32 409.32 0 0 0 99.51999969 384c0 55.68 10.84000031 109.68 32.32000031 160.51999969a412.92 412.92 0 0 0 88.39999969 131.12000062 410.35999969 410.35999969 0 0 0 131.20000031 88.39999969c50.88 21.6 104.88 32.47999969 160.56 32.47999969 55.68 0 109.68-10.87999969 160.48000031-32.4 49.15999969-20.80000031 93.19999969-50.47999969 131.19999938-88.39999969 37.84000031-37.84000031 67.68-82.00000031 88.40000062-131.11999969 21.55999969-50.92000031 32.4-104.92000031 32.4-160.60000031a410.11999969 410.11999969 0 0 0-120.80000062-291.64000031z m-84.44000062 299.16h-173.43999938V616.44a33.72 33.72 0 1 1-67.52000062 0v-224.95999969c0-37.32 30.19999969-67.51999969 67.52000062-67.52000062h173.43999938a33.72 33.72 0 1 1 0 67.52000062z"  horiz-adv-x="1024" />

    
    <glyph glyph-name="time-fill" unicode="&#58994;" d="M512 864C246.87999969 864 32 649.12000031 32 384s214.87999969-480 480-480 480 214.87999969 480 480S777.12000031 864 512 864z m207.19999969-472.51999969a33.72 33.72 0 1 0 0-67.48000031h-173.43999938a67.44 67.44 0 0 0-67.52000062 67.51999969V616.44a33.72 33.72 0 1 0 67.52000062 0v-225h173.43999938z"  horiz-adv-x="1024" />

    
    <glyph glyph-name="tansform" unicode="&#58995;" d="M77.72845906 519.3195534399999c-0.45669844 0-0.82205719 0-1.23308625 0.13701-0.54803813 0-0.95906719 0.13701-1.50710531 0.13700906l-0.95906719 0.13701c-0.54803813 0.13701-1.09607625 0.13701-1.50710531 0.27401906l-0.82205719 0.13700906a22.10421 22.10421 0 0 0-1.50710531 0.45669844l-0.82205719 0.09133969-1.46143593 0.45669844C67.63542031 521.1920175 67.31573187 521.1920175 67.08738219 521.3290274999999l-1.37009532 0.45669844a38274.7641225 38274.7641225 0 0 0-2.19215343 0.68504718l-1.09607625 0.41102907L61.37865031 523.2928312500001l-1.23308625 0.54803813-0.91339687 0.45669843c-0.45669844 0.22834969-0.8677275 0.36535875-1.23308625 0.63937782l-0.82205719 0.45669843-1.37009531 0.77638782-0.68504813 0.45669843-1.37009625 0.82205719-0.68504719 0.41102906C52.61003844 528.1795050000001 52.19900938 528.4535240600001 51.78798031 528.86455312c-0.27401906 0.13701-0.54803813 0.45669844-0.68504719 0.54803813-0.41102906 0.27401906-0.82205719 0.54803813-1.09607718 0.95906719-0.27401906 0.27401906-0.68504813 0.54803813-0.91339688 0.8677275-0.31968938 0.27401906-0.59370844 0.54803813-0.8677275 0.68504718a40.50916219 40.50916219 0 0 0-4.11028687 4.29296719c-0.22834969 0.27401906-0.50236875 0.68504813-0.77638688 0.91339688a3.69925875 3.69925875 0 0 1-0.95906719 1.14174656 3.01421063 3.01421063 0 0 1-0.54803812 0.68504719C41.55793344 539.41428937 41.28391437 539.77964906 40.91855469 540.19067719l-0.45669844 0.7307175-0.82205719 1.37009625-0.41102906 0.68504718-0.82205719 1.37009625-0.41102812 0.82205719C37.72166563 545.67106031 37.63032594 546.0364190600001 37.31063656 546.44744719l-0.36535875 0.82205812c-0.13701 0.41102906-0.45669844 0.82205719-0.54803812 1.23308531-0.13701 0.45669844-0.27401906 0.68504813-0.45669844 1.09607719-0.09133969 0.45669844-0.22834969 0.68504813-0.36535969 1.14174656l-0.45669843 1.23308532a2.60318156 2.60318156 0 0 0-0.22834875 0.95906718l-0.45669844 1.37009625c-0.09133969 0.27401906-0.09133969 0.54803813-0.22834969 0.86772657l-0.45669844 1.50710531-0.09133968 0.82205719C33.52003812 558.04759125 33.38302906 558.59562938 33.38302906 559.0066575000001L33.24601906 559.82871563C33.06333969 560.4224231200001 33.06333969 560.97046125 32.972 561.38149031l-0.13700906 0.95906719c0 0.54803813-0.13701 0.95906719-0.13701 1.50710531 0 0.45669844 0 0.82205719-0.13700906 1.27875563 0 0.41102906 0 0.82205719-0.13701 1.09607625a30.32478375 30.32478375 0 0 0 0 4.97801437c0 0.41102906 0 0.82205719 0.13701 1.09607625 0 0.45669844 0 0.82205719 0.13700906 1.23308625 0 0.54803813 0.13701 1.00473656 0.13701 1.55277563l0.13700906 0.91339687c0.13701 0.59370844 0.13701 1.14174656 0.27401906 1.55277469l0.13701 0.82205812a7.21583719 7.21583719 0 0 1 0.27401907 1.55277469l0.13700906 0.82205719 0.41102906 1.50710531 0.27401906 0.82205719 0.41102907 1.37009625a2.60318156 2.60318156 0 0 1 0.27401906 1.00473656l0.41102812 1.23308625 0.41102907 1.09607625 0.41102906 1.14174656 0.54803812 1.23308625 0.36535875 0.82205719 0.68504813 1.23308625 0.45669844 0.82205719c0.22834969 0.45669844 0.50236875 1.00473656 0.77638687 1.37009625 0.13701 0.31968938 0.27401906 0.45669844 0.45669938 0.7307175l0.77638687 1.37009531 0.45669844 0.68504813a7.58119594 7.58119594 0 0 0 0.91339781 1.27875562 3.01421063 3.01421063 0 0 0 0.54803813 0.68504813c0.27401906 0.41102906 0.54803813 0.82205719 0.91339687 1.09607625 0.31968938 0.27401906 0.59370844 0.68504813 0.8677275 0.95906718l0.82205719 0.82205719 1.64411531 1.82679469L288.72319063 849.37559906a48.50138625 48.50138625 0 0 0 69.41818031 0 50.19117094 50.19117094 0 0 0 0-70.42291687L199.94099188 618.51447938h742.13515124c27.17356406 0 49.14076406-22.28688938 49.140765-49.78014282 0-27.53892281-21.92153062-49.82581219-49.09509468-49.82581219H78.915875c-0.50236875 0.27401906-0.91339687 0.27401906-1.18741594 0.45669844z m867.77292375-269.4521475c0.45669844 0 0.82205719 0 1.23308531-0.13700906 0.54803813 0 0.95906719-0.13701 1.50710532-0.13701l0.95906718-0.13700907c0.54803813-0.13701 1.09607625-0.13701 1.50710532-0.27401906l0.82205718-0.13701c0.54803813-0.13701 1.09607625-0.27401906 1.50710532-0.45669844l0.82205718-0.09133968 1.46143594-0.45669844c0.27401906-0.09133969 0.54803813-0.09133969 0.82205719-0.22834969l1.37009531-0.45669844a2.51184188 2.51184188 0 0 1 0.95906719-0.27401906l1.23308625-0.41102906 1.09607625-0.41102813 1.09607719-0.41102906 1.23308531-0.54803812a6.57645938 6.57645938 0 0 1 0.91339781-0.41102907l1.27875563-0.68504718 0.77638781-0.45669844 1.37009531-0.77638781 0.68504813-0.45669844 1.37009531-0.82205813 0.68504812-0.41102812c0.41102906-0.27401906 0.82205719-0.54803813 1.23308625-0.95906719 0.27401906-0.13701 0.54803813-0.45669844 0.68504719-0.54803812a3.65358844 3.65358844 0 0 0 1.09607719-0.95906719c0.27401906-0.27401906 0.68504813-0.54803813 0.91339687-0.82205719a40.50916219 40.50916219 0 0 0 4.93234407-4.97801437l0.82205718-1.00473657c0.27401906-0.41102906 0.54803813-0.82205719 0.95906719-1.09607625 0.13701-0.27401906 0.41102906-0.54803813 0.54803813-0.68504812 0.27401906-0.45669844 0.54803813-0.82205719 0.91339781-1.23308625l0.45669844-0.68504813c0.27401906-0.45669844 0.54803813-1.00473656 0.82205718-1.37009531l0.41102907-0.7307175 0.82205718-1.37009625 0.41102813-0.82205719c0.27401906-0.45669844 0.41102906-0.8677275 0.68504812-1.27875562l0.36535875-0.82205719c0.13701-0.41102906 0.45669844-0.82205719 0.54803813-1.23308625 0.13701-0.45669844 0.27401906-0.68504813 0.45669844-1.09607719 0.09133969-0.45669844 0.22834969-0.68504813 0.36535968-1.14174562l0.45669844-1.23308625a2.60318156 2.60318156 0 0 0 0.22834875-0.95906719l0.45669844-1.37009531c0.09133969-0.27401906 0.09133969-0.54803813 0.22834969-0.82205813l0.45669843-1.55277468 0.09133969-0.82205719c0.13701-0.54803813 0.27401906-1.09607625 0.27401906-1.50710531l0.13701-0.82205719c0.13701-0.59370844 0.13701-1.14174656 0.27401907-1.55277563l0.13700906-0.91339687c0-0.59370844 0.13701-1.00473656 0.13701-1.55277469 0-0.45669844 0-0.82205719 0.13700906-1.27875656a30.37045406 30.37045406 0 0 0 0.13701-6.07409063c0-0.41102906 0-0.82205719-0.13701-1.09607625 0-0.45669844 0-0.82205719-0.13700906-1.23308625 0-0.54803813-0.13701-0.95906719-0.13701-1.55277562l-0.13700906-0.91339688c-0.13701-0.59370844-0.13701-1.14174656-0.27401907-1.55277468l-0.13701-0.82205719a7.21583719 7.21583719 0 0 1-0.27401906-1.55277563l-0.13700906-0.82205718-0.41102906-1.50710532-0.27401907-0.82205718-0.41102906-1.37009625a2.60318156 2.60318156 0 0 1-0.27401906-1.00473657l-0.41102813-1.23308625-0.41102906-1.09607625-0.41102906-1.09607625c-0.13701-0.45669844-0.41102906-0.8677275-0.54803813-1.27875656l-0.36535875-0.82205719-0.68504812-1.23308625-0.45669844-0.82205718c-0.22834969-0.45669844-0.50236875-1.00473656-0.77638687-1.37009532-0.13701-0.31968938-0.27401906-0.45669844-0.45669938-0.73071843l-0.77638687-1.37009532-0.45669844-0.68504812c-0.22834969-0.45669844-0.50236875-0.82205719-0.91339781-1.23308531-0.13701-0.31968938-0.41102906-0.59370844-0.54803813-0.73071844a3.69925875 3.69925875 0 0 0-0.91339687-1.09607625c-0.31968938-0.27401906-0.59370844-0.68504813-0.8677275-0.95906719l-0.82205719-0.82205719-1.64411438-1.82679375-241.958895-245.79516281a48.50138625 48.50138625 0 0 0-69.41818031 0 50.19117094 50.19117094 0 0 0 0 70.42291781l158.20038 160.43820188H81.29070688A49.41478406 49.41478406 0 0 0 32.14994281 200.17860374999998c0 27.53892281 21.92153062 49.82581219 49.09509469 49.82581219h863.20593844c0.36535875 0 0.77638781 0 1.05040687-0.13701z"  horiz-adv-x="1024" />

    
    <glyph glyph-name="trash" unicode="&#58996;" d="M155.79636406-83.95636406000006c-1.48363594 1.22181844-2.92363594 2.79272719-4.36363687 4.36363687 1.57090875-1.57090875 2.88-3.14181844 4.36363687-4.36363687z m-10.03636406 4.36363687z m835.02545437 794.61818156a40.27636406 40.27636406 0 0 1-28.10181843 11.38909125h-197.14909032V788.24727281C755.49090875 830.05090875 721.76 864 680.21818156 864H343.65090875C302.10909125 864 268.37818156 830.05090875 268.37818156 788.24727281v-61.83272719H70.26909125A38.4 38.4 0 0 1 32 687.97090875c0-21.29454563 17.10545438-38.48727281 38.22545437-38.48727281h33.77454563v-669.73090875c0-41.80363594 33.73090875-75.75272719 75.27272719-75.75272719H855.41818156c41.58545438 0 75.31636406 33.94909125 75.31636406 75.75272719V649.48363594h21.99272719c21.03272719 0 39.31636406 17.19272719 39.31636313 38.48727281a38.09454563 38.09454563 0 0 1-11.21454469 27.05454563zM343.56363594 788.07272719h336.34909125v-62.22545438H343.56363594V788.02909125z m511.72363687-808.14545438H179.27272719V649.48363594h676.01454562v-669.6z m-343.85454562 540.65454563a38.53090875 38.53090875 0 0 1-38.4-38.74909125v-358.95272719c0-21.38181844 17.19272719-38.70545438 38.4-38.70545438a38.53090875 38.53090875 0 0 1 38.48727281 38.70545438V481.74545438a38.53090875 38.53090875 0 0 1-38.44363594 38.70545437z m-208.23272719 0a38.53090875 38.53090875 0 0 1-38.44363594-38.74909125v-358.95272719c0-21.38181844 17.19272719-38.70545438 38.4-38.70545438a38.53090875 38.53090875 0 0 1 38.48727188 38.70545438V481.74545438a38.53090875 38.53090875 0 0 1-38.44363594 38.70545437z m414.41454562 0a38.53090875 38.53090875 0 0 1-38.44363687-38.74909125v-358.95272719c0-21.38181844 17.19272719-38.70545438 38.4-38.70545438a38.53090875 38.53090875 0 0 1 38.48727281 38.70545438V481.74545438a38.53090875 38.53090875 0 0 1-38.44363594 38.70545437z"  horiz-adv-x="1024" />

    
    <glyph glyph-name="unlocked" unicode="&#58997;" d="M220.85177563 450.2016v31.7952c0 41.7408 7.872 82.4064 23.50079999 121.0368A310.7328 310.7328 0 0 0 307.71257562 701.4144a290.9184 290.9184 0 0 0 91.12320001 65.088h0.23039999l1.3824 0.5376a268.8384 268.8384 0 0 0 111.6672 23.9616c38.6688 0 76.3776-8.1408 111.7824-23.7696a296.64 296.64 0 0 0 92.62080001-65.7024c18.816-19.8144 43.5072-63.168 57.216-88.9728 6.6432-12.5952 19.776-20.4288 34.0992-20.4288h14.7456c19.5072 0 33.0624 19.584 25.728 37.6704l-0.0768 0.3456a384.96 384.96 0 0 1-78.2976 121.344A363.1104 363.1104 0 0 1 654.08057562 833.8176 347.7888 347.7888 0 0 1 512.15417562 864a346.6368 346.6368 0 0 1-142.0416-30.2976 362.304 362.304 0 0 1-115.8528-82.176A383.3472 383.3472 0 0 1 175.92377562 630.144 391.8336 391.8336 0 0 1 147.20057562 481.7664V-21.50400000000002C147.20057562-62.591999999999985 179.18777562-96 218.62457562-96h586.752c39.4368 0 71.424 33.408 71.1936 74.496L876.80057562 381.58079999999995c0 37.9008-30.7968 68.5056-68.928 68.5056H220.85177563v0.1152z m582.91199999-471.5904c0-0.6528-0.0768-1.152-0.192-1.536H221.04377563a4.9152 4.9152 0 0 0-0.19200001 1.536v398.592h582.912v-398.592z m-325.5168 234.2016v-95.808c0-18.7392 15.2832-33.9456 34.1376-33.9456 18.816 0 34.1376 15.2064 34.1376 33.9456v96c18.0864 11.5584 28.9536 31.0656 28.9536 52.6848 0 34.6752-28.3008 62.8224-63.2064 62.8224-34.9056 0-63.2064-28.1472-63.2064-62.8224 0.1152-21.312 11.1744-41.472 29.184-52.8768z"  horiz-adv-x="1024" />

    
    <glyph glyph-name="user" unicode="&#58998;" d="M843.52002406 82.12025156000004a357.1997025 357.1997025 0 0 1-77.19993562 113.839905 359.19970031 359.19970031 0 0 1-159.03986813 92.19992344 296.47975313 296.47975313 0 0 1 114.71990438 71.07994031 293.11975594 293.11975594 0 0 1 87.0799275 209.07982594c0 78.87993469-30.83997469 153.19987219-87.0799275 209.03982563A296.11975312 296.11975312 0 0 1 511.8803 863.99959969c-79.31993344 0-153.99987187-30.71997469-210.07982438-86.63992782a293.11975594 293.11975594 0 0 1-87.11992781-209.03982562c0-78.91993406 30.87997406-153.19987219 87.11992781-209.07982594 32.79997313-32.63997281 71.99994-56.6799525 114.67990407-71.07994031a359.19970031 359.19970031 0 0 1-159.0798675-92.23992281 357.1997025 357.1997025 0 0 1-77.11993594-113.79990563A354.55970438 354.55970438 0 0 1 152.0006-57.359632499999975c0-21.35998219 17.35998563-38.63996813 38.83996781-38.63996719a38.71996781 38.71996781 0 0 1 38.83996781 38.63996719c0 75.07993781 29.35997531 145.59987844 82.67993063 198.63983437A281.19976594 281.19976594 0 0 0 512.0003 223.52013375a281.19976594 281.19976594 0 0 0 199.63983375-82.23993188 278.35976812 278.35976812 0 0 0 82.67993062-198.63983437c0-21.35998219 17.35998563-38.63996813 38.79996844-38.63996719a38.71996781 38.71996781 0 0 1 38.87996719 38.63996719 358.63970156 358.63970156 0 0 1-28.47997594 139.47988406zM292.32048313 568.31984625c0 120.43989937 98.47991813 218.39981812 219.47981718 218.39981812 120.95989875 0 219.47981719-97.95991875 219.47981719-218.39981812 0-120.47989969-98.39991844-218.39981812-219.47981719-218.39981813s-219.5198175 97.99991813-219.5198175 218.39981813z"  horiz-adv-x="1024" />

    
    <glyph glyph-name="warning-circle" unicode="&#58999;" d="M512 796.48000031c55.68 0 109.68-10.84000031 160.48000031-32.32000031 49.15999969-20.80000031 93.19999969-50.52 131.19999938-88.39999969 37.84000031-37.87999969 67.68-82.03999969 88.40000062-131.20000031 21.55999969-50.88 32.4-104.88 32.4-160.56 0-55.68-10.84000031-109.68-32.32000031-160.51999969a412.92 412.92 0 0 0-88.39999969-131.12000062 410.35999969 410.35999969 0 0 0-131.20000031-88.39999969c-50.88-21.6-104.88-32.44000031-160.56-32.44000031-55.68 0-109.68 10.84000031-160.48000031 32.32000031a412.92 412.92 0 0 0-131.19999938 88.39999969 410.35999969 410.35999969 0 0 0-88.40000062 131.20000031A409.32 409.32 0 0 0 99.51999969 384c0 55.68 10.84000031 109.68 32.32000031 160.51999969a412.92 412.92 0 0 0 88.39999969 131.12000062 410.35999969 410.35999969 0 0 0 131.20000031 88.39999969c50.88 21.6 104.88 32.47999969 160.56 32.47999969zM512 864C246.87999969 864 32 649.12000031 32 384s214.87999969-480 480-480 480 214.87999969 480 480S777.12000031 864 512 864z m0-600a37.48000031 37.48000031 0 0 0-37.51999969 37.51999969V647.4a37.48000031 37.48000031 0 1 0 75.03999938 0v-345.96c0-20.68000031-16.8-37.48000031-37.51999969-37.48000031z m-42.19999969-102.19999969a42.19999969 42.19999969 0 1 0 84.39999938 0 42.19999969 42.19999969 0 0 0-84.39999938 0z"  horiz-adv-x="1024" />

    
    <glyph glyph-name="zoomout" unicode="&#59000;" d="M79.39368406 238.23157875000004h226.56L56.96-10.357894689999966a47.14105219 47.14105219 0 0 1 66.69473719-66.69473718l252.88421062 252.58105312v-224.3368425a47.19157875 47.19157875 0 0 1 94.3831575 0V285.47368406a47.19157875 47.19157875 0 0 1-47.19157875 47.14105313H79.39368406a47.19157875 47.19157875 0 1 1 0-94.38315844z m521.28 197.15368406h344.3368425a47.19157875 47.19157875 0 1 1 0 94.28210531h-226.45894781l248.99368406 248.74105313a47.04 47.04 0 0 1-33.34736812 80.43789469 46.98947344 46.98947344 0 0 1-33.34736813-13.79368407l-252.98526375-252.58105312V816.80842125a47.19157875 47.19157875 0 0 1-94.3831575 0V482.52631594c0-26.02105219 21.17052656-47.14105219 47.19157875-47.14105313z"  horiz-adv-x="1026" />

    
    <glyph glyph-name="warning-fill" unicode="&#59001;" d="M512 864C246.87999969 864 32 649.12000031 32 384s214.87999969-480 480-480 480 214.87999969 480 480S777.12000031 864 512 864z m0-600a37.48000031 37.48000031 0 0 0-37.51999969 37.51999969V647.4a37.48000031 37.48000031 0 1 0 75.03999938 0v-345.96c0-20.68000031-16.8-37.48000031-37.51999969-37.48000031z m-42.19999969-102.19999969a42.19999969 42.19999969 0 1 0 84.39999938 0 42.19999969 42.19999969 0 0 0-84.39999938 0z"  horiz-adv-x="1024" />

    
    <glyph glyph-name="zoomin" unicode="&#59002;" d="M417.740348-27.369146H176.089773l265.542581 265.258152a50.286984 50.286984 0 0 1-71.107161 71.107161L100.716182 39.528471v239.31826a50.286984 50.286984 0 0 1-100.687739 0v-356.559747c0-27.760236 22.526749-50.286984 50.34387-50.286984H417.569691a50.286984 50.286984 0 0 1 0.113771 100.573968zM973.741459 896h-367.254264a50.286984 50.286984 0 1 1 0-100.573968h241.536804l-265.542581-265.087495a50.173213 50.173213 0 0 1 35.55358-85.89745 50.059441 50.059441 0 0 1 35.610466 14.790289l269.638354 269.353925V489.267041a50.286984 50.286984 0 0 1 100.687739 0V845.826787A50.116327 50.116327 0 0 1 973.741459 896z"  horiz-adv-x="1024" />

    
    <glyph glyph-name="triangle-fill" unicode="&#59003;" d="M814.53077188 349.09070719L232.72739938-87.27273093999997A43.63634344 43.63634344 0 0 0 162.90924969-52.36365655999998V820.36321969A43.63634344 43.63634344 0 0 0 232.72739938 855.272295l581.8033725-436.36343813a43.63634344 43.63634344 0 0 0 0-69.81814968z"  horiz-adv-x="1024" />

    
    <glyph glyph-name="arrow-down" unicode="&#59004;" d="M904 564c0 8.189-3.124 16.379-9.372 22.628-12.497 12.496-32.759 12.496-45.256 0L512 249.255 174.628 586.628c-12.497 12.496-32.758 12.496-45.255 0-12.497-12.498-12.497-32.758 0-45.256l360-360c12.497-12.496 32.758-12.496 45.255 0l360 360C900.876 547.621 904 555.811 904 564z"  horiz-adv-x="1024" />

    
    <glyph glyph-name="arrow-right" unicode="&#59005;" d="M365.17900003-8c-8.189 0-16.379 3.124-22.628 9.372-12.496 12.497-12.496 32.759 0 45.256L679.92400003 384 342.55100003 721.373c-12.496 12.497-12.496 32.758 0 45.255 12.498 12.497 32.758 12.497 45.256 0l360-360c12.496-12.497 12.496-32.758 0-45.255l-360-360c-6.249-6.249-14.439-9.373-22.628-9.373z"  horiz-adv-x="1024" />

    
    <glyph glyph-name="arrow-left" unicode="&#59006;" d="M673.23299997-8c8.189 0 16.379 3.124 22.628 9.372 12.496 12.497 12.496 32.759 0 45.256L358.48799997 384l337.373 337.373c12.496 12.497 12.496 32.758 0 45.255-12.498 12.497-32.758 12.497-45.256 0l-360-360c-12.496-12.497-12.496-32.758 0-45.255l360-360c6.249-6.249 14.439-9.373 22.628-9.373z"  horiz-adv-x="1024" />

    
    <glyph glyph-name="arrow-up" unicode="&#59007;" d="M904 204c0-8.189-3.124-16.379-9.372-22.628-12.497-12.496-32.759-12.496-45.256 0L512 518.745 174.628 181.372c-12.497-12.496-32.758-12.496-45.255 0-12.497 12.498-12.497 32.758 0 45.256l360 360c12.497 12.496 32.758 12.496 45.255 0l360-360C900.876 220.379 904 212.189 904 204z"  horiz-adv-x="1024" />

    
    <glyph glyph-name="check" unicode="&#59008;" d="M1015.893333 796.842667l-654.933333-657.066667-170.837333 299.008a71.850667 71.850667 0 0 1-98.133334 26.794667 71.850667 71.850667 0 0 1-26.88-98.133334l217.6-381.013333a72.106667 72.106667 0 0 1 115.2-13.653333l0.853334 0.853333 718.933333 721.152a72.021333 72.021333 0 0 1-0.170667 101.802667 71.424 71.424 0 0 1-101.546666 0.256z"  horiz-adv-x="1194" />

    
    </font>
</defs>
</svg>
